<svg xmlns="http://www.w3.org/2000/svg" viewBox="0 0 266.51 79.57">
  <defs>
    <style>
      .cls-1 {
        fill: #fff;
      }
    </style>
  </defs>
  <title>blanc-seul</title>
  <g id="Calque_2" data-name="Calque 2">
    <g id="Calque_1-2" data-name="Calque 1">
      <g id="Calque_2-2" data-name="Calque 2">
        <g id="Calque_1-2-2" data-name="Calque 1-2">
          <path class="cls-1" d="M33.53,59.11a10.67,10.67,0,0,0,2.22.45c.74.07,1.48.11,2.22.11a18.27,18.27,0,0,0,5.35-.77,18.94,18.94,0,0,0,4.83-2.18,18.24,18.24,0,0,0,6.9-8l13.89,14a37.05,37.05,0,0,1-6.08,6.74,37.67,37.67,0,0,1-7.43,5.07A37,37,0,0,1,47,77.61a37.95,37.95,0,0,1-35.83-9.89A38.05,38.05,0,0,1,3,55.26,40.68,40.68,0,0,1,0,39.47,41.93,41.93,0,0,1,3,23.36,36.38,36.38,0,0,1,23.22,3,38.24,38.24,0,0,1,38,.1,37.75,37.75,0,0,1,55.53,4.41,38.39,38.39,0,0,1,63,9.51a37.07,37.07,0,0,1,6.11,6.77ZM43.25,20a11,11,0,0,0-2.6-.63A26,26,0,0,0,38,19.26a18.94,18.94,0,0,0-7.35,1.46,17.52,17.52,0,0,0-6,4.06,19.09,19.09,0,0,0-4,6.35,23,23,0,0,0-1.46,8.37,20.19,20.19,0,0,0,.1,2.36c.1.88.19,1.77.35,2.67s.36,1.77.59,2.6a9.75,9.75,0,0,0,.9,2.22Z"/>
          <path class="cls-1" d="M86.64,32.72H80.09V0h13.1a12.67,12.67,0,0,1,3.47.46,13.21,13.21,0,0,1,5.77,3.38,13,13,0,0,1,2,2.66,13.71,13.71,0,0,1,1.33,3.13,13.07,13.07,0,0,1-3.37,12.72,13.45,13.45,0,0,1-4.17,2.81,12.62,12.62,0,0,1-5.08,1h-6.5Zm0-26.19v13.1h6.55a6.3,6.3,0,0,0,2.54-.51,6.6,6.6,0,0,0,3.48-3.49,6.38,6.38,0,0,0,.51-2.55,6.17,6.17,0,0,0-.51-2.54A6.5,6.5,0,0,0,97.8,8.47a6.38,6.38,0,0,0-4.61-1.92Z"/>
          <path class="cls-1" d="M132.55,32.72H110.11V0h22.44V6.55H116.66V13.1h10.76v6.55H116.66v6.53h15.89Z"/>
          <path class="cls-1" d="M143.69,32.72h-6.55V0h13.11a12.67,12.67,0,0,1,3.47.46,13.45,13.45,0,0,1,3.12,1.33,13.12,13.12,0,0,1,6,7.84,12.92,12.92,0,0,1,0,6.76,13.66,13.66,0,0,1-1.21,3A13.16,13.16,0,0,1,159.7,22a12.91,12.91,0,0,1-2.56,2.1l3.7,8.59h-7L151,26.14h-7.33Zm0-26.19v13.1h6.56a6.29,6.29,0,0,0,2.53-.51,6.47,6.47,0,0,0,3.48-3.49,6.49,6.49,0,0,0,0-5.09A6.57,6.57,0,0,0,152.78,7a6.29,6.29,0,0,0-2.53-.51Z"/>
          <path class="cls-1" d="M174.18,32.72h-6.56V0h6.56Z"/>
          <path class="cls-1" d="M78.17,55.94a9.75,9.75,0,0,1,.77-3.81,10,10,0,0,1,5.23-5.23A9.38,9.38,0,0,1,88,46.12h15v6.6H88a3.1,3.1,0,0,0-1.27.25,3.29,3.29,0,0,0-1,.7,3.34,3.34,0,0,0-.7,1,3.46,3.46,0,0,0,0,2.57,3.22,3.22,0,0,0,.7,1,3.29,3.29,0,0,0,1,.7,3.1,3.1,0,0,0,1.27.25h6.56a9.59,9.59,0,0,1,3.82.77,9.76,9.76,0,0,1,5.23,5.22,9.86,9.86,0,0,1,0,7.64,9.7,9.7,0,0,1-2.1,3.12,9.93,9.93,0,0,1-3.13,2.11,9.43,9.43,0,0,1-3.82.78H80V72.31H94.54a3.28,3.28,0,0,0,1.28-.25,3.31,3.31,0,0,0,1.73-4.29A3.17,3.17,0,0,0,95.82,66a3.47,3.47,0,0,0-1.28-.25H88A9.61,9.61,0,0,1,84.19,65,10.1,10.1,0,0,1,79,59.77,9.69,9.69,0,0,1,78.17,55.94Z"/>
          <path class="cls-1" d="M134.79,75.51a16.92,16.92,0,0,1-27.32-8.39,17.18,17.18,0,0,1,0-9A17.09,17.09,0,0,1,115.28,48a17.26,17.26,0,0,1,4-1.72,17.06,17.06,0,0,1,10.36.44,16.23,16.23,0,0,1,5.11,3l-3.47,5.71a9.9,9.9,0,0,0-3.4-2.39,10.52,10.52,0,0,0-4.11-.83,10.18,10.18,0,0,0-4.07.82,10.91,10.91,0,0,0-3.31,2.23,10.5,10.5,0,0,0-2.23,3.31,10.16,10.16,0,0,0-.83,4,10,10,0,0,0,.83,4,10.52,10.52,0,0,0,5.54,5.54,10.18,10.18,0,0,0,4.07.82,10.52,10.52,0,0,0,4.11-.83,9.77,9.77,0,0,0,3.4-2.39Z"/>
          <path class="cls-1" d="M145.13,78.87h-6.55V46.12h6.55V59.23h13.09V46.12h6.55V78.87h-6.55V65.78H145.13Z"/>
          <path class="cls-1" d="M202.92,62.63a16.2,16.2,0,0,1-.6,4.49,17.23,17.23,0,0,1-1.71,4A16.41,16.41,0,0,1,198,74.6a17.7,17.7,0,0,1-3.43,2.66,17,17,0,0,1-13,1.71A16.84,16.84,0,0,1,174,74.6a16.73,16.73,0,0,1-2.66-20.44A17.38,17.38,0,0,1,174,50.72a16.91,16.91,0,0,1,3.43-2.65,17.31,17.31,0,0,1,4-1.7,16.8,16.8,0,0,1,21.44,16.26Zm-6.51,0a9.81,9.81,0,0,0-.82-4,10.37,10.37,0,0,0-5.53-5.54,10.31,10.31,0,0,0-4.06-.87,10.16,10.16,0,0,0-4.06.82,10.49,10.49,0,0,0-5.55,5.54,10.17,10.17,0,0,0,0,8,10.62,10.62,0,0,0,5.55,5.54,10.46,10.46,0,0,0,8.12,0,10.53,10.53,0,0,0,3.31-2.24,10.71,10.71,0,0,0,2.22-3.3A10,10,0,0,0,196.41,62.63Z"/>
          <path class="cls-1" d="M239.29,62.63a16.2,16.2,0,0,1-.6,4.49,17.63,17.63,0,0,1-1.7,4,16.7,16.7,0,0,1-2.65,3.44,17.7,17.7,0,0,1-3.43,2.66,17,17,0,0,1-13,1.71,16.82,16.82,0,0,1-10.14-24.81,17.51,17.51,0,0,1,2.66-3.4,16.83,16.83,0,0,1,11.92-5,16.89,16.89,0,0,1,12,5A16.48,16.48,0,0,1,237,54.09a17.19,17.19,0,0,1,1.7,4A16.6,16.6,0,0,1,239.29,62.63Zm-6.51,0a9.81,9.81,0,0,0-.82-4,10.37,10.37,0,0,0-5.53-5.54,10.44,10.44,0,0,0-4.06-.82,10.16,10.16,0,0,0-4.06.82,10.18,10.18,0,0,0-5.55,5.49,10.17,10.17,0,0,0,0,8,10.62,10.62,0,0,0,5.55,5.54,10.46,10.46,0,0,0,8.12,0,10.53,10.53,0,0,0,3.31-2.24,10.71,10.71,0,0,0,2.22-3.3A10,10,0,0,0,232.78,62.63Z"/>
          <path class="cls-1" d="M266.51,78.87H243.58V46.12h6.56V72.31h16.37Z"/>
          <path class="cls-1" d="M202.26,32.78a18.76,18.76,0,0,1-6.12-.94,8.81,8.81,0,0,1-4.21-2.92,8.34,8.34,0,0,1-1.57-5.06,10.42,10.42,0,0,1,.39-2.6,7.57,7.57,0,0,1,1.47-2.79,8.67,8.67,0,0,1,3.05-2.29,13.27,13.27,0,0,1,5.11-1.08l1.16,0a21.92,21.92,0,0,0,3.3-2.43,5.8,5.8,0,0,0,1.44-1.9,4.6,4.6,0,0,0,.36-1.83,2,2,0,0,0-.57-1.52,2.11,2.11,0,0,0-1.5-.55,2.16,2.16,0,0,0-1.59.63,2.54,2.54,0,0,0-.62,1.88,3.1,3.1,0,0,0,.29,1.27,7.1,7.1,0,0,0,1,1.59c.52.63,1.25,1.42,2.2,2.39s2.17,2.18,3.68,3.66,2.68,2.61,3.71,3.59A22.45,22.45,0,0,0,216,24.12a6.9,6.9,0,0,0,2.44,1.06,7.48,7.48,0,0,0,2.79-.05l-.58,7.66a27.74,27.74,0,0,1-4.07-.27,12,12,0,0,1-3.44-1.08A20.9,20.9,0,0,1,209.46,29c-1.33-1.06-3-2.47-4.84-4.24q-3.81-3.62-6.12-5.95a35,35,0,0,1-3.49-4,10,10,0,0,1-1.57-3,11.27,11.27,0,0,1-.38-3,8.46,8.46,0,0,1,1.15-4.19,8.73,8.73,0,0,1,3.69-3.33A13.64,13.64,0,0,1,204.28,0a13.93,13.93,0,0,1,6.43,1.25,8,8,0,0,1,3.43,3.13,7.72,7.72,0,0,1,1,3.81,8.08,8.08,0,0,1-1.3,4.5A9.62,9.62,0,0,1,210,16.08a17.86,17.86,0,0,1-6.24,1.76l-1.4,1a13.27,13.27,0,0,0-1.71,1.47,3.52,3.52,0,0,0-.81,1.3,4.84,4.84,0,0,0-.22,1.51,2.38,2.38,0,0,0,.5,1.47,3.39,3.39,0,0,0,1.45,1,6.12,6.12,0,0,0,2.24.36,10.49,10.49,0,0,0,3.56-.56,29.55,29.55,0,0,0,3.18-1.32l.78-1.26a14.22,14.22,0,0,0,1.1-2.72,12.72,12.72,0,0,0,.44-3.63h7A15.65,15.65,0,0,1,218.64,22a11.21,11.21,0,0,1-3.11,4.17l-1.92,1.25a9.69,9.69,0,0,1-4.31,3.9A15.79,15.79,0,0,1,202.26,32.78Z"/>
          <circle class="cls-1" cx="68.92" cy="39.3" r="3.6"/>
          <circle class="cls-1" cx="185.91" cy="62.45" r="4.89"/>
          <circle class="cls-1" cx="222.43" cy="62.45" r="4.89"/>
        </g>
      </g>
    </g>
  </g>
</svg>
