<svg xmlns="http://www.w3.org/2000/svg" viewBox="0 0 362.4 100.45"><defs><style>.cls-1{fill:#3c3c3b;}.cls-2{fill:#0077bc;}.cls-3{fill:none;stroke:#0077bc;stroke-miterlimit:10;stroke-width:1.23px;}.cls-4{fill:#1d1d1b;}.cls-5{fill:#2764ad;}.cls-6{fill:#2a2725;}</style></defs><g id="Calque_2" data-name="Calque 2"><g id="Calque_1-2" data-name="Calque 1"><path class="cls-1" d="M82.4,91.23a2.79,2.79,0,0,1,1.23.26,1.9,1.9,0,0,1,.82.74,2.07,2.07,0,0,1,.3,1.13,2.11,2.11,0,0,1-.3,1.14,1.94,1.94,0,0,1-.82.73,2.65,2.65,0,0,1-1.23.26H80.78v2.74h-.85v-7Zm-.13,3.47a1.77,1.77,0,0,0,1.21-.35,1.28,1.28,0,0,0,.38-1,1.25,1.25,0,0,0-.38-1A1.77,1.77,0,0,0,82.27,92H80.78V94.7Z"/><path class="cls-1" d="M88.51,98.33A2.72,2.72,0,0,1,87.17,98a2.23,2.23,0,0,1-.91-.94,3.14,3.14,0,0,1-.33-1.48,3.08,3.08,0,0,1,.33-1.48,2.36,2.36,0,0,1,.9-.95,2.54,2.54,0,0,1,1.3-.33,2.42,2.42,0,0,1,1.27.32,2.14,2.14,0,0,1,.8.86,2.77,2.77,0,0,1,.27,1.23c0,.12,0,.23,0,.33a1.09,1.09,0,0,1,0,.26H86.48v-.75h3.91l-.43.08A1.55,1.55,0,0,0,89.54,94a1.49,1.49,0,0,0-1.1-.42,1.66,1.66,0,0,0-.9.24,1.59,1.59,0,0,0-.58.69,2.55,2.55,0,0,0-.21,1.09A2.42,2.42,0,0,0,87,96.66a1.56,1.56,0,0,0,.6.69,1.68,1.68,0,0,0,.92.24,1.78,1.78,0,0,0,1-.22,1.65,1.65,0,0,0,.59-.61l.67.4a2.23,2.23,0,0,1-.52.62,2.16,2.16,0,0,1-.73.41A2.77,2.77,0,0,1,88.51,98.33Zm.17-8h.93l-1,1.77h-.69Z"/><path class="cls-1" d="M92.57,98.23v-5.3h.69l.12.87a1.55,1.55,0,0,1,.65-.73,2,2,0,0,1,1-.25l.3,0a.77.77,0,0,1,.28.09l-.15.77a1,1,0,0,0-.25-.06,2.24,2.24,0,0,0-.4,0,1.31,1.31,0,0,0-.66.19,1.44,1.44,0,0,0-.55.57,2,2,0,0,0-.23,1v2.87Z"/><path class="cls-1" d="M97.48,91.91a.65.65,0,0,1-.46-.17.63.63,0,0,1-.17-.47.61.61,0,0,1,.17-.46.65.65,0,0,1,.46-.17.64.64,0,0,1,.46.17.62.62,0,0,1,.18.46.6.6,0,0,1-.64.64Zm.43,1v5.3h-.85v-5.3Z"/><path class="cls-1" d="M101.94,98.33a3.09,3.09,0,0,1-1.42-.33,2.26,2.26,0,0,1-1-.93l.72-.52a1.75,1.75,0,0,0,.68.77,2.07,2.07,0,0,0,1.09.27,1.51,1.51,0,0,0,.88-.22.65.65,0,0,0,.32-.56.63.63,0,0,0-.15-.41.94.94,0,0,0-.54-.27l-1.28-.27a1.93,1.93,0,0,1-1.1-.53,1.28,1.28,0,0,1-.34-.92,1.4,1.4,0,0,1,.25-.79,1.72,1.72,0,0,1,.71-.58,2.47,2.47,0,0,1,1.09-.22,2.58,2.58,0,0,1,1.32.31A1.9,1.9,0,0,1,104,94l-.71.46a1.3,1.3,0,0,0-.58-.68,1.81,1.81,0,0,0-.84-.22,1.76,1.76,0,0,0-.65.11,1,1,0,0,0-.42.29.68.68,0,0,0-.14.42.66.66,0,0,0,.16.43,1,1,0,0,0,.59.28l1.33.27a1.91,1.91,0,0,1,1,.49,1.27,1.27,0,0,1,.29.83,1.44,1.44,0,0,1-.26.87,1.6,1.6,0,0,1-.74.58A2.75,2.75,0,0,1,101.94,98.33Z"/><path class="cls-1" d="M108,92.82a2.66,2.66,0,0,1,1,.17,2.09,2.09,0,0,1,.72.49,2.46,2.46,0,0,1,.5.75l-.81.38a1.57,1.57,0,0,0-.51-.78,1.42,1.42,0,0,0-.9-.27,1.69,1.69,0,0,0-.91.24,1.52,1.52,0,0,0-.58.69,3,3,0,0,0,0,2.17,1.52,1.52,0,0,0,.58.69,1.69,1.69,0,0,0,.91.24,1.75,1.75,0,0,0,.72-.13,1.15,1.15,0,0,0,.5-.37,1.39,1.39,0,0,0,.27-.59l.78.28a2.53,2.53,0,0,1-.49.83,2.12,2.12,0,0,1-.75.54,2.85,2.85,0,0,1-2.33-.15,2.23,2.23,0,0,1-.91-.94,3.14,3.14,0,0,1-.33-1.48,3.08,3.08,0,0,1,.33-1.48,2.32,2.32,0,0,1,.91-.95A2.65,2.65,0,0,1,108,92.82Z"/><path class="cls-1" d="M114.07,92.82a2.62,2.62,0,0,1,1.33.33,2.32,2.32,0,0,1,.91.95,3.08,3.08,0,0,1,.33,1.48,3.14,3.14,0,0,1-.33,1.48,2.23,2.23,0,0,1-.91.94,2.83,2.83,0,0,1-2.65,0,2.25,2.25,0,0,1-.92-.94,3.26,3.26,0,0,1-.32-1.48,3.2,3.2,0,0,1,.32-1.48,2.34,2.34,0,0,1,.92-.95A2.61,2.61,0,0,1,114.07,92.82Zm0,.73a1.6,1.6,0,0,0-.92.25,1.54,1.54,0,0,0-.59.69,2.91,2.91,0,0,0,0,2.17,1.57,1.57,0,0,0,.59.7,1.88,1.88,0,0,0,1.84,0,1.57,1.57,0,0,0,.59-.7,2.91,2.91,0,0,0,0-2.17,1.54,1.54,0,0,0-.59-.69A1.6,1.6,0,0,0,114.07,93.55Z"/><path class="cls-1" d="M119.2,90.49v6.39a.8.8,0,0,0,.15.56.66.66,0,0,0,.48.15,1.75,1.75,0,0,0,.35,0l.37-.12-.14.75-.37.11a2.83,2.83,0,0,1-.41,0,1.18,1.18,0,0,1-1-.35,1.55,1.55,0,0,1-.32-1.07V90.49Z"/><path class="cls-1" d="M124.89,94.8a1.2,1.2,0,0,0-.32-.91,1.19,1.19,0,0,0-.9-.33,1.74,1.74,0,0,0-.93.24,1.43,1.43,0,0,0-.56.77l-.69-.42a1.8,1.8,0,0,1,.79-1,2.52,2.52,0,0,1,1.42-.37,2.63,2.63,0,0,1,1,.2,1.67,1.67,0,0,1,.74.59,1.8,1.8,0,0,1,.27,1V97.2a.35.35,0,0,0,.4.38,1.75,1.75,0,0,0,.4,0l-.05.66a1.1,1.1,0,0,1-.55.11,1.38,1.38,0,0,1-.55-.11.88.88,0,0,1-.38-.36,1.21,1.21,0,0,1-.14-.6v-.11l.21,0a1.39,1.39,0,0,1-.43.67,2.13,2.13,0,0,1-.69.38,2.5,2.5,0,0,1-.75.12,2.28,2.28,0,0,1-.87-.16,1.35,1.35,0,0,1-.64-.48,1.29,1.29,0,0,1-.24-.8,1.3,1.3,0,0,1,.4-1,2.06,2.06,0,0,1,1.1-.52l2.1-.42v.7l-1.7.35a1.92,1.92,0,0,0-.78.3.68.68,0,0,0,0,1.06,1.13,1.13,0,0,0,.73.21,1.87,1.87,0,0,0,.59-.08,1.5,1.5,0,0,0,.51-.24,1.17,1.17,0,0,0,.47-1Z"/><path class="cls-1" d="M128.38,91.91a.65.65,0,0,1-.46-.17.64.64,0,0,1-.18-.47.62.62,0,0,1,.18-.46.65.65,0,0,1,.46-.17.64.64,0,0,1,.46.17.62.62,0,0,1,.18.46.6.6,0,0,1-.64.64Zm.43,1v5.3H128v-5.3Z"/><path class="cls-1" d="M130.94,98.23v-5.3h.68l.12.87a1.55,1.55,0,0,1,.65-.73,2,2,0,0,1,1.05-.25l.3,0a.77.77,0,0,1,.28.09l-.15.77a1,1,0,0,0-.25-.06,2.07,2.07,0,0,0-.39,0,1.34,1.34,0,0,0-.67.19,1.51,1.51,0,0,0-.55.57,2,2,0,0,0-.23,1v2.87Z"/><path class="cls-1" d="M137.46,98.33a2.72,2.72,0,0,1-1.34-.33,2.23,2.23,0,0,1-.91-.94,3.14,3.14,0,0,1-.33-1.48,3.08,3.08,0,0,1,.33-1.48,2.36,2.36,0,0,1,.9-.95,2.54,2.54,0,0,1,1.3-.33,2.42,2.42,0,0,1,1.27.32,2.14,2.14,0,0,1,.8.86,2.77,2.77,0,0,1,.27,1.23c0,.12,0,.23,0,.33a1.09,1.09,0,0,1,0,.26h-4.28v-.75h3.91l-.43.08a1.55,1.55,0,0,0-.42-1.17,1.49,1.49,0,0,0-1.1-.42,1.66,1.66,0,0,0-.9.24,1.59,1.59,0,0,0-.58.69,2.85,2.85,0,0,0,0,2.17,1.56,1.56,0,0,0,.6.69,1.68,1.68,0,0,0,.92.24,1.78,1.78,0,0,0,.95-.22,1.65,1.65,0,0,0,.59-.61l.67.4a2.23,2.23,0,0,1-.52.62,2.16,2.16,0,0,1-.73.41A2.77,2.77,0,0,1,137.46,98.33Z"/><path class="cls-1" d="M147.51,98.33a2.72,2.72,0,0,1-1.34-.33,2.18,2.18,0,0,1-.91-.94,3.14,3.14,0,0,1-.33-1.48,3.08,3.08,0,0,1,.33-1.48,2.29,2.29,0,0,1,.9-.95,2.54,2.54,0,0,1,1.3-.33,2.44,2.44,0,0,1,1.27.32,2.14,2.14,0,0,1,.8.86,2.77,2.77,0,0,1,.27,1.23c0,.12,0,.23,0,.33a2.06,2.06,0,0,1,0,.26h-4.28v-.75h3.91l-.44.08a1.55,1.55,0,0,0-.41-1.17,1.49,1.49,0,0,0-1.1-.42,1.63,1.63,0,0,0-.9.24,1.59,1.59,0,0,0-.58.69,2.55,2.55,0,0,0-.21,1.09,2.42,2.42,0,0,0,.22,1.08,1.56,1.56,0,0,0,.6.69,1.68,1.68,0,0,0,.92.24,1.78,1.78,0,0,0,.95-.22,1.73,1.73,0,0,0,.59-.61l.67.4a2.23,2.23,0,0,1-.52.62,2.26,2.26,0,0,1-.73.41A2.77,2.77,0,0,1,147.51,98.33Z"/><path class="cls-1" d="M154.59,92.93v.73h-3.83v-.73Zm-1.93-1.51v5.34a.73.73,0,0,0,.23.59.89.89,0,0,0,.57.19,1.25,1.25,0,0,0,.53-.11,1.38,1.38,0,0,0,.4-.28l.3.71a2.08,2.08,0,0,1-.58.35,2.26,2.26,0,0,1-.77.12,1.86,1.86,0,0,1-.75-.14,1.26,1.26,0,0,1-.56-.46,1.5,1.5,0,0,1-.21-.82V91.65Z"/><path class="cls-1" d="M161.7,98.33a3.1,3.1,0,0,1-1.43-.33,2.31,2.31,0,0,1-1-.93l.72-.52a1.82,1.82,0,0,0,.68.77,2.1,2.1,0,0,0,1.09.27,1.51,1.51,0,0,0,.88-.22.65.65,0,0,0,.32-.56.63.63,0,0,0-.15-.41.91.91,0,0,0-.54-.27L161,95.86a1.93,1.93,0,0,1-1.11-.53,1.31,1.31,0,0,1-.33-.92,1.39,1.39,0,0,1,.24-.79,1.78,1.78,0,0,1,.71-.58,2.47,2.47,0,0,1,1.09-.22,2.62,2.62,0,0,1,1.33.31,1.88,1.88,0,0,1,.8.87l-.71.46a1.26,1.26,0,0,0-.58-.68,1.82,1.82,0,0,0-1.49-.11.92.92,0,0,0-.41.29.64.64,0,0,0-.15.42.72.72,0,0,0,.16.43,1.05,1.05,0,0,0,.6.28l1.32.27a1.91,1.91,0,0,1,1,.49,1.23,1.23,0,0,1,.3.83,1.45,1.45,0,0,1-.27.87,1.6,1.6,0,0,1-.74.58A2.73,2.73,0,0,1,161.7,98.33Z"/><path class="cls-1" d="M167.73,92.82a2.66,2.66,0,0,1,1,.17,2,2,0,0,1,.72.49,2.46,2.46,0,0,1,.5.75l-.8.38a1.65,1.65,0,0,0-.52-.78,1.41,1.41,0,0,0-.89-.27,1.7,1.7,0,0,0-.92.24,1.59,1.59,0,0,0-.58.69,3,3,0,0,0,0,2.17,1.59,1.59,0,0,0,.58.69,1.7,1.7,0,0,0,.92.24,1.73,1.73,0,0,0,.71-.13,1.15,1.15,0,0,0,.5-.37,1.39,1.39,0,0,0,.27-.59l.78.28a2.53,2.53,0,0,1-.49.83,2.12,2.12,0,0,1-.75.54,2.62,2.62,0,0,1-1,.18A2.65,2.65,0,0,1,166.4,98a2.23,2.23,0,0,1-.91-.94,3.14,3.14,0,0,1-.33-1.48,3.08,3.08,0,0,1,.33-1.48,2.32,2.32,0,0,1,.91-.95A2.65,2.65,0,0,1,167.73,92.82Z"/><path class="cls-1" d="M173.82,92.82a2.62,2.62,0,0,1,1.33.33,2.32,2.32,0,0,1,.91.95,3.08,3.08,0,0,1,.33,1.48,3.14,3.14,0,0,1-.33,1.48,2.23,2.23,0,0,1-.91.94,2.83,2.83,0,0,1-2.65,0,2.18,2.18,0,0,1-.91-.94,3.14,3.14,0,0,1-.33-1.48,3.08,3.08,0,0,1,.33-1.48,2.26,2.26,0,0,1,.91-.95A2.64,2.64,0,0,1,173.82,92.82Zm0,.73a1.58,1.58,0,0,0-1.51.94,3,3,0,0,0,0,2.17,1.63,1.63,0,0,0,.59.7,1.88,1.88,0,0,0,1.84,0,1.51,1.51,0,0,0,.59-.7,2.91,2.91,0,0,0,0-2.17,1.48,1.48,0,0,0-.59-.69A1.6,1.6,0,0,0,173.82,93.55Z"/><path class="cls-1" d="M179,90.49v6.39a.8.8,0,0,0,.15.56.66.66,0,0,0,.48.15,1.69,1.69,0,0,0,.35,0l.37-.12-.14.75-.37.11a2.73,2.73,0,0,1-.41,0,1.2,1.2,0,0,1-1-.35,1.55,1.55,0,0,1-.32-1.07V90.49Z"/><path class="cls-1" d="M184.65,94.8a1.24,1.24,0,0,0-.32-.91,1.19,1.19,0,0,0-.9-.33,1.75,1.75,0,0,0-.94.24,1.43,1.43,0,0,0-.56.77l-.69-.42a1.85,1.85,0,0,1,.79-1,2.52,2.52,0,0,1,1.42-.37,2.68,2.68,0,0,1,1,.2,1.64,1.64,0,0,1,.73.59,1.8,1.8,0,0,1,.27,1V97.2c0,.25.14.38.41.38a1.74,1.74,0,0,0,.39,0l0,.66a1.15,1.15,0,0,1-.55.11,1.43,1.43,0,0,1-.56-.11.88.88,0,0,1-.38-.36,1.21,1.21,0,0,1-.14-.6v-.11l.22,0a1.41,1.41,0,0,1-.44.67,1.94,1.94,0,0,1-.69.38,2.45,2.45,0,0,1-.75.12,2.28,2.28,0,0,1-.87-.16,1.35,1.35,0,0,1-.64-.48,1.29,1.29,0,0,1-.24-.8,1.3,1.3,0,0,1,.4-1,2.06,2.06,0,0,1,1.11-.52l2.1-.42v.7l-1.71.35a1.92,1.92,0,0,0-.78.3.62.62,0,0,0-.25.53.64.64,0,0,0,.26.53,1.14,1.14,0,0,0,.74.21,1.85,1.85,0,0,0,.58-.08,1.5,1.5,0,0,0,.51-.24,1.19,1.19,0,0,0,.35-.42,1.31,1.31,0,0,0,.13-.58Z"/><path class="cls-1" d="M188.13,91.91a.65.65,0,0,1-.46-.17.63.63,0,0,1-.17-.47.61.61,0,0,1,.17-.46.65.65,0,0,1,.46-.17.64.64,0,0,1,.46.17.62.62,0,0,1,.18.46.6.6,0,0,1-.64.64Zm.43,1v5.3h-.85v-5.3Z"/><path class="cls-1" d="M190.69,98.23v-5.3h.69l.11.87a1.55,1.55,0,0,1,.65-.73,2,2,0,0,1,1.05-.25l.3,0a.77.77,0,0,1,.28.09l-.15.77a1,1,0,0,0-.25-.06,2.07,2.07,0,0,0-.39,0,1.34,1.34,0,0,0-.67.19,1.51,1.51,0,0,0-.55.57,2,2,0,0,0-.23,1v2.87Z"/><path class="cls-1" d="M197.22,98.33a2.66,2.66,0,0,1-1.34-.33,2.2,2.2,0,0,1-.92-.94,3.14,3.14,0,0,1-.33-1.48A3.08,3.08,0,0,1,195,94.1a2.36,2.36,0,0,1,.9-.95,2.56,2.56,0,0,1,1.3-.33,2.42,2.42,0,0,1,1.27.32,2.07,2.07,0,0,1,.8.86,2.78,2.78,0,0,1,.28,1.23c0,.12,0,.23,0,.33a2,2,0,0,1,0,.26h-4.28v-.75h3.91l-.43.08a1.55,1.55,0,0,0-.42-1.17,1.49,1.49,0,0,0-1.1-.42,1.62,1.62,0,0,0-.89.24,1.61,1.61,0,0,0-.59.69,2.72,2.72,0,0,0-.2,1.09,2.57,2.57,0,0,0,.21,1.08,1.56,1.56,0,0,0,.6.69,1.72,1.72,0,0,0,.93.24,1.77,1.77,0,0,0,.94-.22,1.65,1.65,0,0,0,.59-.61l.67.4a2.2,2.2,0,0,1-.51.62,2.38,2.38,0,0,1-.73.41A2.81,2.81,0,0,1,197.22,98.33Z"/><path class="cls-1" d="M205.05,98.23v-5.3h.74l.08,1.18-.14-.11a1.88,1.88,0,0,1,.45-.69,1.75,1.75,0,0,1,.67-.37,2.53,2.53,0,0,1,.77-.12,2.33,2.33,0,0,1,1,.22,1.71,1.71,0,0,1,.75.66,2.09,2.09,0,0,1,.28,1.14v3.39h-.85v-3.1a1.62,1.62,0,0,0-.37-1.22,1.33,1.33,0,0,0-.93-.35,1.76,1.76,0,0,0-.76.18,1.43,1.43,0,0,0-.63.59,2,2,0,0,0-.25,1.08v2.82Z"/><path class="cls-1" d="M213.69,98.33a2.38,2.38,0,0,1-1-.19,1.51,1.51,0,0,1-.73-.62,2,2,0,0,1-.28-1.12V92.93h.85v3.25a1.43,1.43,0,0,0,.34,1.11,1.5,1.5,0,0,0,1,.3,1.65,1.65,0,0,0,.58-.1,1.41,1.41,0,0,0,.52-.32,1.55,1.55,0,0,0,.36-.55,2.22,2.22,0,0,0,.13-.81V92.93h.85v5.3h-.74l-.06-.81a1.66,1.66,0,0,1-.74.7A2.75,2.75,0,0,1,213.69,98.33Z"/><path class="cls-1" d="M218.47,98.23v-5.3h.74l0,.82A1.76,1.76,0,0,1,220,93a2.28,2.28,0,0,1,1-.22,2.31,2.31,0,0,1,1.06.26,1.65,1.65,0,0,1,.76.78,1.64,1.64,0,0,1,.48-.59,2.35,2.35,0,0,1,.67-.34,2.6,2.6,0,0,1,.7-.11,2.32,2.32,0,0,1,1,.21,1.79,1.79,0,0,1,.76.66,2.11,2.11,0,0,1,.29,1.15v3.39h-.85V94.92a1.32,1.32,0,0,0-.36-1,1.3,1.3,0,0,0-.89-.32,1.51,1.51,0,0,0-1.35.8,2,2,0,0,0-.22,1v2.91h-.84V94.92a1.19,1.19,0,0,0-1.25-1.36,1.58,1.58,0,0,0-1.33.78,2.05,2.05,0,0,0-.24,1.06v2.83Z"/><path class="cls-1" d="M231,98.33A2.73,2.73,0,0,1,229.6,98a2.23,2.23,0,0,1-.91-.94,3.14,3.14,0,0,1-.33-1.48,3.08,3.08,0,0,1,.33-1.48,2.36,2.36,0,0,1,.9-.95,2.54,2.54,0,0,1,1.3-.33,2.42,2.42,0,0,1,1.27.32,2.07,2.07,0,0,1,.8.86,2.78,2.78,0,0,1,.28,1.23,3.25,3.25,0,0,1,0,.33,1.09,1.09,0,0,1,0,.26h-4.28v-.75h3.91l-.43.08A1.55,1.55,0,0,0,232,94a1.49,1.49,0,0,0-1.1-.42,1.6,1.6,0,0,0-.89.24,1.54,1.54,0,0,0-.59.69,3,3,0,0,0,0,2.17,1.56,1.56,0,0,0,.6.69,1.68,1.68,0,0,0,.92.24,1.78,1.78,0,0,0,1-.22,1.65,1.65,0,0,0,.59-.61l.67.4a2.38,2.38,0,0,1-.51.62,2.31,2.31,0,0,1-.74.41A2.75,2.75,0,0,1,231,98.33Zm.17-8H232l-1,1.77h-.69Z"/><path class="cls-1" d="M235,98.23v-5.3h.69l.12.87a1.55,1.55,0,0,1,.65-.73,2,2,0,0,1,1-.25l.3,0a.77.77,0,0,1,.28.09l-.15.77a1,1,0,0,0-.25-.06,2.24,2.24,0,0,0-.4,0,1.28,1.28,0,0,0-.66.19,1.53,1.53,0,0,0-.56.57,2.06,2.06,0,0,0-.22,1v2.87Z"/><path class="cls-1" d="M239.91,91.91a.65.65,0,0,1-.46-.17.63.63,0,0,1-.17-.47.61.61,0,0,1,.17-.46.65.65,0,0,1,.46-.17.64.64,0,0,1,.46.17.62.62,0,0,1,.18.46.6.6,0,0,1-.64.64Zm.43,1v5.3h-.85v-5.3Z"/><path class="cls-1" d="M246.29,100.45V96.78l.15.1a1.63,1.63,0,0,1-.35.79,1.78,1.78,0,0,1-.69.49,2.11,2.11,0,0,1-.87.17,2.28,2.28,0,0,1-1.2-.33,2.23,2.23,0,0,1-.88-.94,3.14,3.14,0,0,1-.33-1.48,2.92,2.92,0,0,1,.35-1.5,2.45,2.45,0,0,1,.92-.94,2.51,2.51,0,0,1,1.23-.32,2.09,2.09,0,0,1,.83.17,1.88,1.88,0,0,1,.65.46,1.43,1.43,0,0,1,.35.72h-.13l.08-1.24h.74v7.52Zm-1.67-2.86a1.51,1.51,0,0,0,.87-.25,1.61,1.61,0,0,0,.59-.71,2.6,2.6,0,0,0,.21-1.08,2.64,2.64,0,0,0-.2-1.08,1.53,1.53,0,0,0-.58-.67,1.58,1.58,0,0,0-.87-.24,1.52,1.52,0,0,0-1.23.55,2.26,2.26,0,0,0-.44,1.47A2.29,2.29,0,0,0,243.4,97,1.46,1.46,0,0,0,244.62,97.59Z"/><path class="cls-1" d="M251.19,98.33a2.38,2.38,0,0,1-1-.19,1.56,1.56,0,0,1-.73-.62,2,2,0,0,1-.28-1.12V92.93h.85v3.25a1.39,1.39,0,0,0,.35,1.11,1.45,1.45,0,0,0,1,.3,1.74,1.74,0,0,0,.59-.1,1.37,1.37,0,0,0,.51-.32,1.55,1.55,0,0,0,.36-.55,2.22,2.22,0,0,0,.13-.81V92.93h.85v5.3h-.74l0-.81a1.74,1.74,0,0,1-.75.7A2.75,2.75,0,0,1,251.19,98.33Z"/><path class="cls-1" d="M258.19,98.33a2.66,2.66,0,0,1-1.34-.33,2.2,2.2,0,0,1-.92-.94,3.14,3.14,0,0,1-.33-1.48,3.08,3.08,0,0,1,.33-1.48,2.36,2.36,0,0,1,.9-.95,2.56,2.56,0,0,1,1.3-.33,2.42,2.42,0,0,1,1.27.32,2.07,2.07,0,0,1,.8.86,2.78,2.78,0,0,1,.28,1.23c0,.12,0,.23,0,.33a2,2,0,0,1,0,.26h-4.28v-.75h3.91l-.43.08a1.55,1.55,0,0,0-.42-1.17,1.49,1.49,0,0,0-1.1-.42,1.62,1.62,0,0,0-.89.24,1.61,1.61,0,0,0-.59.69,2.72,2.72,0,0,0-.2,1.09,2.57,2.57,0,0,0,.21,1.08,1.56,1.56,0,0,0,.6.69,1.7,1.7,0,0,0,.92.24,1.78,1.78,0,0,0,.95-.22,1.65,1.65,0,0,0,.59-.61l.67.4a2.2,2.2,0,0,1-.51.62,2.31,2.31,0,0,1-.74.41A2.71,2.71,0,0,1,258.19,98.33Z"/><path class="cls-1" d="M264.15,98.33a3.09,3.09,0,0,1-1.42-.33,2.26,2.26,0,0,1-1-.93l.72-.52a1.75,1.75,0,0,0,.68.77,2.07,2.07,0,0,0,1.09.27,1.51,1.51,0,0,0,.88-.22.65.65,0,0,0,.32-.56.63.63,0,0,0-.15-.41.94.94,0,0,0-.54-.27l-1.28-.27a1.93,1.93,0,0,1-1.1-.53,1.28,1.28,0,0,1-.34-.92,1.4,1.4,0,0,1,.25-.79A1.72,1.72,0,0,1,263,93a2.47,2.47,0,0,1,1.09-.22,2.58,2.58,0,0,1,1.32.31,1.9,1.9,0,0,1,.81.87l-.71.46a1.3,1.3,0,0,0-.58-.68,1.81,1.81,0,0,0-.84-.22,1.76,1.76,0,0,0-.65.11A1,1,0,0,0,263,94a.68.68,0,0,0-.14.42.66.66,0,0,0,.16.43,1,1,0,0,0,.59.28l1.33.27a1.91,1.91,0,0,1,1,.49,1.27,1.27,0,0,1,.29.83,1.44,1.44,0,0,1-.26.87,1.65,1.65,0,0,1-.74.58A2.75,2.75,0,0,1,264.15,98.33Z"/><path class="cls-2" d="M33.53,59.63a10.93,10.93,0,0,0,2.22.45c.74.07,1.48.1,2.22.1a18.6,18.6,0,0,0,5.35-.76,19.49,19.49,0,0,0,4.83-2.19,18.23,18.23,0,0,0,6.9-8l13.89,14a37.44,37.44,0,0,1-6.08,6.73A38.13,38.13,0,0,1,55.43,75,37.13,37.13,0,0,1,47,78.13a38.65,38.65,0,0,1-23.81-1.84,37.31,37.31,0,0,1-12.08-8.12A37.93,37.93,0,0,1,3,55.77,40.57,40.57,0,0,1,0,40,41.94,41.94,0,0,1,3,23.87,36.41,36.41,0,0,1,23.22,3.46,38.48,38.48,0,0,1,38,.62a37.42,37.42,0,0,1,9.1,1.11A38.06,38.06,0,0,1,55.5,4.92,38.57,38.57,0,0,1,63,10a38.12,38.12,0,0,1,6.11,6.77Zm9.72-39.09a11,11,0,0,0-2.6-.62A25.68,25.68,0,0,0,38,19.78a18.91,18.91,0,0,0-7.32,1.42,17.44,17.44,0,0,0-6,4.06,19.11,19.11,0,0,0-4,6.36A22.73,22.73,0,0,0,19.23,40c0,.69,0,1.48.1,2.36s.19,1.77.35,2.67.36,1.77.59,2.61a9.72,9.72,0,0,0,.9,2.22Z"/><path class="cls-1" d="M86.64,33.25H80.09V.51h13.1A12.86,12.86,0,0,1,96.66,1,13.07,13.07,0,0,1,99.78,2.3a13.47,13.47,0,0,1,2.65,2.06,12.93,12.93,0,0,1,2,2.66,13.4,13.4,0,0,1,1.33,3.13,12.8,12.8,0,0,1,.46,3.47,12.81,12.81,0,0,1-1,5.08,13.17,13.17,0,0,1-7,7,12.61,12.61,0,0,1-5.08,1H86.64Zm0-26.19V20.17h6.55a6.24,6.24,0,0,0,2.54-.52,6.6,6.6,0,0,0,3.48-3.49,6.61,6.61,0,0,0,0-5.09,6.6,6.6,0,0,0-3.48-3.49,6.24,6.24,0,0,0-2.54-.52Z"/><path class="cls-1" d="M132.55,33.25H110.11V.51h22.44V7.06H116.66v6.56h10.76v6.55H116.66V26.7h15.89Z"/><path class="cls-1" d="M143.69,33.25h-6.55V.51h13.11a12.86,12.86,0,0,1,3.47.47,13.07,13.07,0,0,1,3.12,1.32,13.41,13.41,0,0,1,2.64,2.06,13,13,0,0,1,3.38,5.79,13,13,0,0,1,0,6.75,13.58,13.58,0,0,1-1.21,3,13.12,13.12,0,0,1-1.93,2.65,12.91,12.91,0,0,1-2.56,2.1l3.63,8.56h-7L151,26.65l-7.33.05Zm0-26.19V20.17h6.56a6.16,6.16,0,0,0,2.53-.52,6.63,6.63,0,0,0,2.08-1.4,6.56,6.56,0,0,0,1.4-2.09,6.49,6.49,0,0,0,0-5.09A6.56,6.56,0,0,0,154.86,9a6.63,6.63,0,0,0-2.08-1.4,6.16,6.16,0,0,0-2.53-.52Z"/><path class="cls-1" d="M174.18,33.25h-6.56V.51h6.56Z"/><path class="cls-1" d="M78.17,56.46a9.59,9.59,0,0,1,.77-3.82,10.15,10.15,0,0,1,2.12-3.11,10,10,0,0,1,3.11-2.11A9.41,9.41,0,0,1,88,46.64h15v6.55H88a3.34,3.34,0,0,0-1.27.25,3.13,3.13,0,0,0-1,.7,3.23,3.23,0,0,0-.7,1,3.18,3.18,0,0,0-.25,1.28A3.33,3.33,0,0,0,85,57.75a3.27,3.27,0,0,0,.7,1,3.1,3.1,0,0,0,1,.69,3.17,3.17,0,0,0,1.27.26h6.56a9.61,9.61,0,0,1,3.82.76,9.75,9.75,0,0,1,5.23,5.23,9.86,9.86,0,0,1,0,7.64,9.93,9.93,0,0,1-2.1,3.11,9.82,9.82,0,0,1-3.13,2.11,9.46,9.46,0,0,1-3.82.78H80V72.83H94.54a3.43,3.43,0,0,0,1.28-.25,3.21,3.21,0,0,0,1.73-1.74,3.18,3.18,0,0,0,.25-1.28,3.25,3.25,0,0,0-.25-1.28,3.23,3.23,0,0,0-1.73-1.73,3.25,3.25,0,0,0-1.28-.25H88a9.41,9.41,0,0,1-3.81-.78,10.13,10.13,0,0,1-3.11-2.11,10,10,0,0,1-2.12-3.13A9.62,9.62,0,0,1,78.17,56.46Z"/><path class="cls-1" d="M134.79,76a16.76,16.76,0,0,1-11,4.07,16.33,16.33,0,0,1-4.49-.61,16.81,16.81,0,0,1-4-1.71,17,17,0,0,1-3.44-2.66,16.84,16.84,0,0,1-4.37-7.48,16.59,16.59,0,0,1-.6-4.48,16.79,16.79,0,0,1,2.31-8.55,17.14,17.14,0,0,1,6.1-6.1,16.85,16.85,0,0,1,8.53-2.32,17,17,0,0,1,5.87,1,16.16,16.16,0,0,1,5.11,3L131.32,56a9.8,9.8,0,0,0-3.4-2.39,10.34,10.34,0,0,0-4.11-.83,10.1,10.1,0,0,0-4.07.82,10.93,10.93,0,0,0-3.31,2.22,10.38,10.38,0,0,0-2.23,3.31,10.17,10.17,0,0,0-.83,4.06,10,10,0,0,0,.83,4,10.46,10.46,0,0,0,5.54,5.53,10.11,10.11,0,0,0,4.07.83,10.35,10.35,0,0,0,4.11-.84,9.78,9.78,0,0,0,3.4-2.38Z"/><path class="cls-1" d="M145.13,79.38h-6.55V46.64h6.55V59.75h13.09V46.64h6.55V79.38h-6.55V66.3H145.13Z"/><path class="cls-1" d="M202.92,63.15a16.59,16.59,0,0,1-.6,4.48,17.29,17.29,0,0,1-1.71,4.05A16.86,16.86,0,0,1,198,75.11a17.24,17.24,0,0,1-3.43,2.66A16.85,16.85,0,0,1,186,80.09a16.21,16.21,0,0,1-4.48-.61,17,17,0,0,1-11.85-11.85,16.21,16.21,0,0,1-.61-4.48,16.85,16.85,0,0,1,2.32-8.54A17.24,17.24,0,0,1,174,51.18a16.86,16.86,0,0,1,3.43-2.64,17.29,17.29,0,0,1,4.05-1.71,16.59,16.59,0,0,1,4.48-.6,16.71,16.71,0,0,1,8.54,2.31,16.77,16.77,0,0,1,6.07,6.07,16.71,16.71,0,0,1,2.31,8.54Zm-6.51,0a10.16,10.16,0,0,0-.82-4.06,10.3,10.3,0,0,0-5.53-5.53,10.16,10.16,0,0,0-4.06-.82,10.06,10.06,0,0,0-4.06.82,10.69,10.69,0,0,0-3.31,2.22,10.41,10.41,0,0,0-2.24,3.31,10.16,10.16,0,0,0-.82,4.06,10,10,0,0,0,.82,4,10.71,10.71,0,0,0,2.24,3.3,10.38,10.38,0,0,0,3.31,2.23,10.06,10.06,0,0,0,4.06.83,10.17,10.17,0,0,0,4.06-.83,10.38,10.38,0,0,0,3.31-2.23,11,11,0,0,0,2.22-3.3A10,10,0,0,0,196.41,63.15Z"/><path class="cls-1" d="M239.29,63.15a16.59,16.59,0,0,1-.6,4.48,17.7,17.7,0,0,1-1.7,4.05,16.91,16.91,0,0,1-2.65,3.43,17.24,17.24,0,0,1-3.43,2.66,16.85,16.85,0,0,1-8.54,2.32,16.21,16.21,0,0,1-4.48-.61,17,17,0,0,1-7.48-4.37A16.84,16.84,0,0,1,206,67.63a16.21,16.21,0,0,1-.61-4.48,16.85,16.85,0,0,1,2.32-8.54,17.24,17.24,0,0,1,2.66-3.43,16.65,16.65,0,0,1,3.44-2.64,17,17,0,0,1,4-1.71,16.59,16.59,0,0,1,4.48-.6,16.71,16.71,0,0,1,8.54,2.31,16.86,16.86,0,0,1,7.78,10.11A16.79,16.79,0,0,1,239.29,63.15Zm-6.51,0a10.16,10.16,0,0,0-.82-4.06,10.3,10.3,0,0,0-5.53-5.53,10.16,10.16,0,0,0-4.06-.82,10.06,10.06,0,0,0-4.06.82A10.81,10.81,0,0,0,215,55.78a10.41,10.41,0,0,0-2.24,3.31,10.16,10.16,0,0,0-.82,4.06,10,10,0,0,0,.82,4,10.71,10.71,0,0,0,2.24,3.3,10.5,10.5,0,0,0,3.31,2.23,10.06,10.06,0,0,0,4.06.83,10.17,10.17,0,0,0,4.06-.83,10.38,10.38,0,0,0,3.31-2.23,11,11,0,0,0,2.22-3.3A10,10,0,0,0,232.78,63.15Z"/><path class="cls-1" d="M266.51,79.38H243.58V46.64h6.56V72.83h16.37Z"/><path class="cls-2" d="M202.26,33.29a18.46,18.46,0,0,1-6.12-.94,8.7,8.7,0,0,1-4.21-2.91,8.29,8.29,0,0,1-1.57-5.06,10.07,10.07,0,0,1,.39-2.6,7.36,7.36,0,0,1,1.47-2.8,8.56,8.56,0,0,1,3.05-2.28,13.42,13.42,0,0,1,5.11-1.09l1.16,0a22.43,22.43,0,0,0,3.3-2.43,6,6,0,0,0,1.44-1.9,4.74,4.74,0,0,0,.36-1.83,2,2,0,0,0-.57-1.52,2.09,2.09,0,0,0-1.5-.55A2.15,2.15,0,0,0,203,8a2.55,2.55,0,0,0-.62,1.88,3,3,0,0,0,.29,1.28,7.61,7.61,0,0,0,1,1.59c.52.62,1.25,1.42,2.2,2.38s2.17,2.19,3.68,3.66,2.68,2.61,3.71,3.59a21.65,21.65,0,0,0,2.77,2.29,6.72,6.72,0,0,0,2.44,1.06,7.54,7.54,0,0,0,2.79-.05l-.58,7.66a28.6,28.6,0,0,1-4.07-.26,11.87,11.87,0,0,1-3.44-1.09,19.81,19.81,0,0,1-3.69-2.41c-1.33-1.06-2.95-2.47-4.84-4.23q-3.81-3.61-6.12-5.95a35.24,35.24,0,0,1-3.49-4,9.82,9.82,0,0,1-1.57-3,11,11,0,0,1-.38-3,8.32,8.32,0,0,1,1.15-4.19,8.71,8.71,0,0,1,3.64-3.33,16.66,16.66,0,0,1,12.81,0,8,8,0,0,1,3.43,3.13,7.79,7.79,0,0,1,1,3.8,8.23,8.23,0,0,1-1.3,4.51A9.77,9.77,0,0,1,210,16.6a18,18,0,0,1-6.24,1.76l-1.4,1a14.27,14.27,0,0,0-1.71,1.47,3.57,3.57,0,0,0-.81,1.3,4.64,4.64,0,0,0-.22,1.52,2.4,2.4,0,0,0,.5,1.47,3.29,3.29,0,0,0,1.45,1,6.26,6.26,0,0,0,2.24.36,10.73,10.73,0,0,0,3.56-.55,28.64,28.64,0,0,0,3.18-1.33l.78-1.25a15,15,0,0,0,1.1-2.72,13,13,0,0,0,.44-3.64h7a15.69,15.69,0,0,1-1.23,5.56,11.05,11.05,0,0,1-3.11,4.17l-1.92,1.25a9.81,9.81,0,0,1-4.31,3.91A16,16,0,0,1,202.26,33.29Z"/><circle class="cls-2" cx="68.92" cy="39.81" r="3.6"/><circle class="cls-2" cx="185.91" cy="62.97" r="4.89"/><circle class="cls-2" cx="222.43" cy="62.97" r="4.89"/><path class="cls-3" d="M281.64.62h68.13a12,12,0,0,1,12,12V97.56a0,0,0,0,1,0,0H293.66a12,12,0,0,1-12-12V.62A0,0,0,0,1,281.64.62Z"/><path class="cls-4" d="M290.33,9.25H289.1V8.09H293V9.25h-1.22v3.27h-1.42Z"/><path class="cls-4" d="M295.26,11.41h-.38v1.11h-1.42V8.09h2c1.17,0,1.92.64,1.92,1.67a1.48,1.48,0,0,1-.8,1.39l.89,1.37H296Zm.13-2.17h-.51v1h.51c.39,0,.58-.2.58-.52S295.78,9.24,295.39,9.24Z"/><path class="cls-4" d="M300.91,11.75h-1.59l-.28.77H297.6l1.83-4.43h1.39l1.84,4.43h-1.47Zm-.39-1.08-.41-1.11-.4,1.11Z"/><path class="cls-4" d="M307.15,8.09v4.43H306l-1.59-2v2H303V8.09h1.16l1.6,2v-2Z"/><path class="cls-4" d="M307.69,12.17l.46-1.09a2.8,2.8,0,0,0,1.38.4c.4,0,.55-.09.55-.24,0-.56-2.33-.11-2.33-1.76,0-.82.66-1.49,2-1.49a3.18,3.18,0,0,1,1.58.38l-.42,1.09a2.43,2.43,0,0,0-1.17-.33c-.42,0-.55.12-.55.27,0,.54,2.32.09,2.32,1.73,0,.81-.65,1.49-2,1.49A3.64,3.64,0,0,1,307.69,12.17Z"/><path class="cls-4" d="M313.43,9.22V10h1.75V11.1h-1.75v1.42H312V8.09h3.42V9.22Z"/><path class="cls-4" d="M315.8,10.3a2.37,2.37,0,1,1,2.37,2.32A2.26,2.26,0,0,1,315.8,10.3Zm3.31,0a1,1,0,1,0-1.88,0,1,1,0,1,0,1.88,0Z"/><path class="cls-4" d="M323,11.41h-.39v1.11h-1.41V8.09h2c1.17,0,1.91.64,1.91,1.67a1.49,1.49,0,0,1-.79,1.39l.88,1.37h-1.51Zm.13-2.17h-.52v1h.52c.39,0,.57-.2.57-.52S323.5,9.24,323.11,9.24Z"/><path class="cls-4" d="M329.51,12.52v-2l-.91,1.62H328l-.91-1.55v1.95h-1.29V8.09h1.16l1.37,2.36,1.33-2.36h1.16v4.43Z"/><path class="cls-4" d="M334.47,11.75h-1.59l-.29.77h-1.44L333,8.09h1.39l1.84,4.43h-1.47Zm-.39-1.08-.41-1.11-.4,1.11Z"/><path class="cls-4" d="M337.27,9.25H336V8.09h3.87V9.25h-1.23v3.27h-1.41Z"/><path class="cls-4" d="M340.4,8.09h1.41v4.43H340.4Z"/><path class="cls-4" d="M342.45,10.3a2.37,2.37,0,1,1,2.37,2.32A2.26,2.26,0,0,1,342.45,10.3Zm3.31,0a1,1,0,1,0-1.88,0,1,1,0,1,0,1.88,0Z"/><path class="cls-4" d="M352,8.09v4.43H350.8l-1.59-2v2h-1.38V8.09H349l1.6,2v-2Z"/><path class="cls-4" d="M291.91,14.43H294a2.22,2.22,0,1,1,0,4.43h-2.07Zm2,3.26a1,1,0,0,0,1-1.05,1,1,0,0,0-1-1.05h-.59v2.1Z"/><path class="cls-4" d="M298.25,14.91a1.81,1.81,0,0,1-.23.83l-.42.94h-.84l.3-1.07a.74.74,0,0,1-.39-.7.79.79,0,1,1,1.58,0Z"/><path class="cls-4" d="M298.8,16.86V14.43h1.41v2.39c0,.68.25.93.65.93s.64-.25.64-.93V14.43h1.39v2.43a2,2,0,1,1-4.09,0Z"/><path class="cls-4" d="M307.8,14.43v4.43h-1.17l-1.59-2v2h-1.38V14.43h1.16l1.6,2v-2Z"/><path class="cls-4" d="M311.43,15.58h-1.22V14.43h3.87v1.15h-1.23v3.28h-1.42Z"/><path class="cls-4" d="M318.06,17.73v1.13h-3.49V14.43H318v1.12h-2v.52h1.77v1.08H316v.58Z"/><path class="cls-4" d="M320.52,17.74h-.38v1.12h-1.41V14.43h2c1.17,0,1.91.64,1.91,1.67a1.49,1.49,0,0,1-.79,1.39l.88,1.37h-1.51Zm.14-2.16h-.52v1h.52c.39,0,.57-.2.57-.52S321.05,15.58,320.66,15.58Z"/><path class="cls-4" d="M325.11,17.74h-.38v1.12h-1.42V14.43h2c1.17,0,1.91.64,1.91,1.67a1.49,1.49,0,0,1-.79,1.39l.88,1.37h-1.51Zm.14-2.16h-.52v1h.52c.39,0,.57-.2.57-.52S325.64,15.58,325.25,15.58Z"/><path class="cls-4" d="M327.9,14.43h1.42v4.43H327.9Z"/><path class="cls-4" d="M331,15.58h-1.23V14.43h3.87v1.15h-1.23v3.28H331Z"/><path class="cls-4" d="M333.94,16.64A2.37,2.37,0,1,1,336.31,19,2.27,2.27,0,0,1,333.94,16.64Zm3.31,0a1,1,0,1,0-1.88,0,1,1,0,1,0,1.88,0Z"/><path class="cls-4" d="M339.32,14.43h1.41v4.43h-1.41Z"/><path class="cls-4" d="M343.34,17.74H343v1.12h-1.41V14.43h2c1.17,0,1.91.64,1.91,1.67a1.49,1.49,0,0,1-.79,1.39l.88,1.37h-1.51Zm.13-2.16H343v1h.52c.39,0,.57-.2.57-.52S343.86,15.58,343.47,15.58Z"/><path class="cls-4" d="M349.62,17.73v1.13h-3.49V14.43h3.41v1.12h-2v.52h1.77v1.08h-1.77v.58Z"/><path class="cls-4" d="M302.11,20.76h1.41V25.2h-1.41Z"/><path class="cls-4" d="M308.46,20.76V25.2H307.3l-1.6-2v2h-1.37V20.76h1.16l1.59,2v-2Z"/><path class="cls-4" d="M309.27,20.76h2.07a2.22,2.22,0,1,1,0,4.44h-2.07Zm2,3.27a1.05,1.05,0,0,0,0-2.1h-.59V24Z"/><path class="cls-4" d="M314.31,23.2V20.76h1.42v2.4c0,.68.24.93.64.93s.64-.25.64-.93v-2.4h1.39V23.2a2,2,0,1,1-4.09,0Z"/><path class="cls-4" d="M318.91,24.84l.45-1.09a2.75,2.75,0,0,0,1.39.41c.4,0,.54-.09.54-.24,0-.56-2.32-.11-2.32-1.76,0-.83.66-1.5,2-1.5a3.19,3.19,0,0,1,1.58.39l-.43,1.08a2.48,2.48,0,0,0-1.17-.33c-.41,0-.54.13-.54.28,0,.53,2.32.09,2.32,1.72,0,.81-.65,1.5-2,1.5A3.59,3.59,0,0,1,318.91,24.84Z"/><path class="cls-4" d="M324.08,21.92h-1.23V20.76h3.88v1.16H325.5V25.2h-1.42Z"/><path class="cls-4" d="M329,24.08h-.38V25.2h-1.41V20.76h2a1.68,1.68,0,0,1,1.91,1.68,1.49,1.49,0,0,1-.79,1.39l.88,1.37h-1.51Zm.14-2.16h-.52v1h.52c.39,0,.57-.2.57-.52S329.54,21.92,329.15,21.92Z"/><path class="cls-4" d="M331.81,20.76h1.41V25.2h-1.41Z"/><path class="cls-4" d="M337.52,24.07V25.2H334V20.76h3.41v1.13h-2v.52h1.77v1.08h-1.77v.58Z"/><path class="cls-4" d="M338.18,20.76h1.42V24h1.89V25.2h-3.31Z"/><path class="cls-5" d="M329.52,50.85c2.69-1.46,4.08-6.16,3-9.59a9.34,9.34,0,0,0-7.19-6.86,5.83,5.83,0,0,0-1.38-.14h-6.74c-.8,0-1.09.28-1.12,1.13s0,1.67,0,2.51.34,1.15,1.11,1.15c2.19,0,4.38,0,6.57,0a4.81,4.81,0,0,1,4.45,6,4.87,4.87,0,0,1-4.65,3.86c-1.53,0-3.06,0-4.59,0-.91,0-1.11.21-1.11,1.2v2.33c0,1,.27,1.28,1.19,1.28h6a4.94,4.94,0,0,1,4.67,3.78,5.44,5.44,0,0,1-2.06,5.68A4.43,4.43,0,0,1,325,64h-7.61c-1,0-1.3.32-1.3,1.33,0,.82,0,1.64,0,2.45s.31,1.11,1.07,1.12c2.67,0,5.35.07,8,0a9.64,9.64,0,0,0,9-7.55A9.85,9.85,0,0,0,332,52.21,4.51,4.51,0,0,0,329.52,50.85Z"/><path class="cls-5" d="M315.34,60.79c0-2.13,0-4.25,0-6.38a2.82,2.82,0,0,0-1.49-2.72c-.12-.07-.27-.12-.28-.26s.16-.19.27-.26a2.88,2.88,0,0,0,1.5-2.68c0-4.27,0-8.54,0-12.81,0-1-.37-1.41-1.32-1.43h-1.4A1.48,1.48,0,0,0,311,35.93c0,2.14,0,4.29,0,6.43,0,1.84,0,3.68,0,5.51A3,3,0,0,1,309.11,51a1.08,1.08,0,0,0-.26.14c-.12.12-.31.19-.31.41s.25.24.39.29a3.1,3.1,0,0,1,2,1.94,4.07,4.07,0,0,1,.15,1.39V66.76c0,1.67.41,2.11,2,2.11h1.05c.88,0,1.28-.43,1.28-1.35Z"/><path class="cls-6" d="M327.58,77.12l2,3a7.22,7.22,0,0,1,.85,1.32c.41,1.09,1.23,1,2.09,1,.24,0,.34-.1.34-.37V74.68c0-.06,0-.15,0-.18-.45-.38-1-.11-1.48-.17-.33,0-.26.28-.26.49v3.92c0,.08,0,.15,0,.4-.51-.79-1-1.45-1.38-2.11s-.93-1.41-1.36-2.13a1,1,0,0,0-1-.58c-.54,0-1.22-.23-1.58.11s-.09,1-.09,1.59c0,2,0,3.93,0,5.89,0,.42.1.57.52.56,1.25,0,1.25,0,1.25-1.32v-4Z"/><path class="cls-6" d="M334.75,78.38c0,1.19,0,2.37,0,3.55,0,.38.07.55.47.54,1,0,1.94,0,2.91,0a4.09,4.09,0,0,0,.46-8.07c-1.17-.13-2.35,0-3.53-.07-.33,0-.31.22-.3.45Zm1.77,0v-.68c0-1.57,0-1.57,1.5-1.5a2.19,2.19,0,0,1,.4,4.3,8.39,8.39,0,0,1-1.5.08c-.31,0-.41-.11-.41-.43C336.53,79.57,336.52,79,336.52,78.39Z"/><path class="cls-6" d="M308.56,79.61c-.06-.49.24-1.24-.13-1.61s-1-.07-1.57-.1a1.34,1.34,0,0,0-.4,0c-.29.08-.7-.23-.85.23a1.17,1.17,0,0,0,.65,1.41c.17.08.43,0,.47.28s.08.61-.36.75A2.33,2.33,0,0,1,303.45,79a2.29,2.29,0,0,1,1.88-2.84,1.93,1.93,0,0,1,1.33.34,1.22,1.22,0,0,0,1.8-.29c.21-.24.21-.38,0-.6a3.9,3.9,0,0,0-4.48-1,4.14,4.14,0,0,0-2.37,4.06,3.93,3.93,0,0,0,2.93,3.73,4.25,4.25,0,0,0,3.37-.4,1.14,1.14,0,0,0,.66-1.23A8.34,8.34,0,0,1,308.56,79.61Z"/><path class="cls-6" d="M310.33,78.42c0,1.18,0,2.36,0,3.55,0,.35.08.5.45.5,1.33,0,1.33,0,1.33-1.34a2.06,2.06,0,0,1,0-.43c.05-.24-.2-.63.24-.68s.77-.14,1,.38c.11.3.33.56.43.87a1.76,1.76,0,0,0,2.14,1.2c.31,0,.31-.12.19-.37-.35-.7-.66-1.43-1-2.12-.15-.3-.17-.48.08-.73a2.78,2.78,0,0,0,.7-3.12,2.55,2.55,0,0,0-2.56-1.81c-.84,0-1.67,0-2.5,0-.35,0-.47.11-.46.49,0,1.21,0,2.41,0,3.62Zm1.77-1.28c0-.93,0-.93.87-.93h.41a.88.88,0,0,1,.79.6.86.86,0,0,1-.12.91c-.25.4-.64.39-1,.38C312.1,78.09,312.1,78.09,312.1,77.14Z"/><path class="cls-6" d="M316.7,82.46c.46,0,.85,0,1.23,0a1.18,1.18,0,0,0,1.06-.91.83.83,0,0,1,1-.71,14.28,14.28,0,0,0,1.85,0,.61.61,0,0,1,.69.49,1.61,1.61,0,0,0,2.13,1.13c.38-.1.12-.35.05-.51-.77-1.89-1.55-3.77-2.33-5.66-.22-.52-.45-1-.65-1.57a.51.51,0,0,0-.61-.4,3.76,3.76,0,0,1-.75,0,.43.43,0,0,0-.49.32l-3.07,7.44C316.78,82.17,316.76,82.27,316.7,82.46Zm4.11-5.34.77,2c-.45,0-.83,0-1.22,0s-.34-.09-.24-.35C320.34,78.26,320.55,77.75,320.81,77.12Z"/><path class="cls-6" d="M302.27,87.49c0,1,0,2,0,3,0,.36.1.45.43.44.85,0,1.7,0,2.55,0a1.78,1.78,0,0,0,1.66-1.28,1.82,1.82,0,0,0-.51-2.09c-.24-.2-.23-.25,0-.49a1.81,1.81,0,0,0,.19-2A1.71,1.71,0,0,0,304.92,84c-.75,0-1.51,0-2.26,0-.3,0-.4.08-.39.41C302.29,85.45,302.27,86.47,302.27,87.49ZM304.34,90h0c-.22,0-.43,0-.64,0-.39.06-.48-.13-.48-.52,0-1.57,0-1.57,1.46-1.56a3.49,3.49,0,0,1,.46,0,1,1,0,0,1,.93,1A1,1,0,0,1,305.2,90,6.17,6.17,0,0,1,304.34,90Zm-.12-5h.52a1,1,0,0,1,1.05,1,1,1,0,0,1-1,1c-.39,0-.78,0-1.16,0s-.42-.12-.39-.43a4,4,0,0,0,0-.49C303.23,85,303.23,85,304.22,85Z"/><path class="cls-6" d="M330.32,87.5A3.44,3.44,0,0,0,327,83.9,3.57,3.57,0,0,0,327,91,3.45,3.45,0,0,0,330.32,87.5ZM327,84.93a2.54,2.54,0,1,1-2.42,2.56A2.49,2.49,0,0,1,327,84.93Z"/><path class="cls-6" d="M336.74,90.86c-.59-.85-1.15-1.66-1.72-2.44-.22-.3-.24-.46.11-.69a2,2,0,0,0,.8-2.34A1.85,1.85,0,0,0,334.09,84c-.64,0-1.28,0-1.92,0-.28,0-.43,0-.43.38,0,2.07,0,4.13,0,6.19,0,.42.24.33.46.34s.47,0,.45-.36c0-.61,0-1.22,0-1.83,0-.23-.12-.58.17-.64s.73-.16,1,.25c.43.63.91,1.22,1.3,1.87A1.29,1.29,0,0,0,336.74,90.86ZM332.65,86V85.3c0-.19,0-.34.24-.34a7.68,7.68,0,0,1,1.44.05,1.05,1.05,0,0,1,.57,1.63,1.27,1.27,0,0,1-1.25.44C332.65,87.07,332.65,87.08,332.65,86Z"/><path class="cls-6" d="M308.39,87.47c0,1,0,2,0,3,0,.34.09.46.42.45,1.09,0,2.17,0,3.26,0,.32,0,.44-.09.44-.45s-.06-.52-.45-.51c-.77,0-1.55,0-2.32,0-.31,0-.4-.09-.42-.42-.07-1.64-.07-1.64,1.45-1.65a3.72,3.72,0,0,1,.58,0c.4.06.54-.08.54-.52s-.22-.47-.54-.46c-.54,0-1.08,0-1.62,0-.3,0-.39-.1-.4-.43,0-1.58-.06-1.58,1.45-1.57.43,0,.86,0,1.28,0s.44-.15.44-.51-.12-.45-.43-.44c-1.09,0-2.17,0-3.26,0-.32,0-.43.1-.42.45,0,1,0,2,0,3Z"/><path class="cls-6" d="M318.67,87.48c0,1,0,2,0,3,0,.33.07.48.41.45s.58.06.55-.45,0-1.27,0-1.9c0-.39.09-.55.49-.53.6,0,1.2,0,1.8,0,.38,0,.38-.22.38-.51s0-.52-.38-.5c-.62,0-1.24,0-1.86,0-.33,0-.42-.11-.44-.46-.06-1.67-.07-1.67,1.5-1.67.4,0,.81,0,1.22,0s.42-.1.42-.45-.07-.51-.45-.5c-1.08,0-2.16,0-3.25,0-.29,0-.39.07-.39.4C318.69,85.44,318.67,86.46,318.67,87.48Z"/><path class="cls-6" d="M338.86,88c0,.79,0,1.59,0,2.39,0,.34,0,.57.44.56s.48-.14.47-.53c0-1.61,0-3.23,0-4.84,0-.46.08-.69.57-.63.32,0,.65,0,1,0s.51-.08.51-.51-.18-.44-.5-.44c-1.35,0-2.71,0-4.06,0-.33,0-.49,0-.48.46s.07.53.45.49a4.82,4.82,0,0,1,.76,0c1,0,.86-.17.87.89,0,.72,0,1.43,0,2.15Z"/><path class="cls-6" d="M313.85,87.49c0,1,0,2,0,2.94,0,.34.05.52.44.51,1,0,2,0,3,0,.36,0,.4-.15.4-.47s0-.5-.4-.49c-.6,0-1.21,0-1.8,0s-.7-.11-.69-.69c0-1.55,0-3.1,0-4.65,0-.36.05-.65-.48-.65s-.44.35-.44.67v2.82Z"/></g></g></svg>