<svg xmlns="http://www.w3.org/2000/svg" viewBox="0 0 361.59 100.26"><defs><style>.cls-1{fill:none;stroke:#af0d1c;stroke-miterlimit:10;stroke-width:1.06px;}.cls-2{fill:#1d1d1b;}.cls-3{fill:#af0d1c;}.cls-4{fill:#3c3c3b;}</style></defs><g id="Calque_2" data-name="Calque 2"><g id="Calque_1-2" data-name="Calque 1"><path class="cls-1" d="M280.66.73h63.16A17.25,17.25,0,0,1,361.07,18V97.68a0,0,0,0,1,0,0H297.91a17.25,17.25,0,0,1-17.25-17.25V.73A0,0,0,0,1,280.66.73Z"/><path class="cls-2" d="M289.48,9.34h-1.23V8.24h3.87v1.1H290.9v3.1h-1.42Z"/><path class="cls-2" d="M294.41,11.39H294v1h-1.42V8.24h2c1.17,0,1.92.61,1.92,1.59a1.39,1.39,0,0,1-.8,1.31l.89,1.3h-1.52Zm.13-2.06H294v1h.51c.39,0,.58-.19.58-.49S294.93,9.33,294.54,9.33Z"/><path class="cls-2" d="M300.06,11.71h-1.59l-.28.73h-1.44l1.83-4.2H300l1.84,4.2h-1.47Zm-.39-1-.41-1.06-.4,1.06Z"/><path class="cls-2" d="M306.3,8.24v4.2h-1.17l-1.59-1.91v1.91h-1.38V8.24h1.16l1.6,1.91V8.24Z"/><path class="cls-2" d="M306.84,12.1l.45-1a2.86,2.86,0,0,0,1.39.39c.4,0,.55-.09.55-.23,0-.53-2.33-.1-2.33-1.67,0-.78.66-1.41,2-1.41a3.4,3.4,0,0,1,1.58.36l-.42,1a2.63,2.63,0,0,0-1.17-.31c-.42,0-.55.12-.55.26,0,.5,2.32.08,2.32,1.63,0,.77-.65,1.42-1.95,1.42A3.74,3.74,0,0,1,306.84,12.1Z"/><path class="cls-2" d="M312.58,9.31V10h1.75V11.1h-1.75v1.34h-1.42V8.24h3.42V9.31Z"/><path class="cls-2" d="M315,10.34a2.38,2.38,0,1,1,2.37,2.2A2.21,2.21,0,0,1,315,10.34Zm3.31,0a.95.95,0,1,0-1.88,0,.95.95,0,1,0,1.88,0Z"/><path class="cls-2" d="M322.12,11.39h-.38v1h-1.41V8.24h2c1.17,0,1.91.61,1.91,1.59a1.39,1.39,0,0,1-.79,1.31l.88,1.3h-1.51Zm.14-2.06h-.52v1h.52c.39,0,.57-.19.57-.49S322.65,9.33,322.26,9.33Z"/><path class="cls-2" d="M328.66,12.44V10.53l-.91,1.53h-.62l-.92-1.47v1.85h-1.28V8.24h1.16l1.37,2.24,1.33-2.24h1.16v4.2Z"/><path class="cls-2" d="M333.62,11.71H332l-.29.73H330.3l1.84-4.2h1.39l1.84,4.2H333.9Zm-.39-1-.41-1.06-.41,1.06Z"/><path class="cls-2" d="M336.42,9.34h-1.23V8.24h3.87v1.1h-1.23v3.1h-1.41Z"/><path class="cls-2" d="M339.55,8.24H341v4.2h-1.41Z"/><path class="cls-2" d="M341.6,10.34a2.38,2.38,0,1,1,2.37,2.2A2.21,2.21,0,0,1,341.6,10.34Zm3.31,0a.95.95,0,1,0-1.88,0,.95.95,0,1,0,1.88,0Z"/><path class="cls-2" d="M351.11,8.24v4.2H350l-1.59-1.91v1.91H347V8.24h1.16l1.6,1.91V8.24Z"/><path class="cls-2" d="M291.06,14.24h2.06a2.12,2.12,0,1,1,0,4.2h-2.06Zm2,3.1a1,1,0,1,0,0-2h-.59v2Z"/><path class="cls-2" d="M297.4,14.7a1.61,1.61,0,0,1-.23.78l-.42.9h-.84l.3-1a.68.68,0,0,1-.39-.66.79.79,0,0,1,1.58,0Z"/><path class="cls-2" d="M298,16.55V14.24h1.42v2.27c0,.64.24.88.64.88s.64-.24.64-.88V14.24H302v2.31a2,2,0,0,1-4.09,0Z"/><path class="cls-2" d="M307,14.24v4.2h-1.16l-1.6-1.91v1.91h-1.38v-4.2H304l1.6,1.91V14.24Z"/><path class="cls-2" d="M310.58,15.34h-1.22v-1.1h3.87v1.1H312v3.1h-1.42Z"/><path class="cls-2" d="M317.21,17.37v1.07h-3.49v-4.2h3.41v1.07h-2v.49h1.77v1h-1.77v.55Z"/><path class="cls-2" d="M319.67,17.39h-.38v1.05h-1.41v-4.2h2c1.17,0,1.91.61,1.91,1.59a1.39,1.39,0,0,1-.79,1.31l.88,1.3h-1.51Zm.14-2.06h-.52v1h.52c.39,0,.57-.19.57-.49S320.2,15.33,319.81,15.33Z"/><path class="cls-2" d="M324.26,17.39h-.38v1.05h-1.41v-4.2h2c1.17,0,1.91.61,1.91,1.59a1.39,1.39,0,0,1-.79,1.31l.88,1.3H325Zm.14-2.06h-.52v1h.52c.39,0,.57-.19.57-.49S324.79,15.33,324.4,15.33Z"/><path class="cls-2" d="M327.06,14.24h1.41v4.2h-1.41Z"/><path class="cls-2" d="M330.19,15.34H329v-1.1h3.87v1.1H331.6v3.1h-1.41Z"/><path class="cls-2" d="M333.09,16.34a2.38,2.38,0,1,1,2.37,2.2A2.21,2.21,0,0,1,333.09,16.34Zm3.31,0a.95.95,0,1,0-1.88,0,.95.95,0,1,0,1.88,0Z"/><path class="cls-2" d="M338.47,14.24h1.41v4.2h-1.41Z"/><path class="cls-2" d="M342.48,17.39h-.38v1.05h-1.41v-4.2h2c1.17,0,1.91.61,1.91,1.59a1.39,1.39,0,0,1-.79,1.31l.88,1.3H343.2Zm.14-2.06h-.52v1h.52c.39,0,.57-.19.57-.49S343,15.33,342.62,15.33Z"/><path class="cls-2" d="M348.77,17.37v1.07h-3.49v-4.2h3.41v1.07h-2v.49h1.77v1h-1.77v.55Z"/><path class="cls-2" d="M301.26,20.24h1.41v4.2h-1.41Z"/><path class="cls-2" d="M307.61,20.24v4.2h-1.16l-1.6-1.91v1.91h-1.37v-4.2h1.16l1.59,1.91V20.24Z"/><path class="cls-2" d="M308.42,20.24h2.07a2.12,2.12,0,1,1,0,4.2h-2.07Zm2,3.1a1,1,0,1,0,0-2h-.6v2Z"/><path class="cls-2" d="M313.46,22.55V20.24h1.41v2.27c0,.64.25.88.65.88s.64-.24.64-.88V20.24h1.39v2.31a2,2,0,0,1-4.09,0Z"/><path class="cls-2" d="M318.06,24.1l.45-1a2.86,2.86,0,0,0,1.39.39c.4,0,.54-.09.54-.23,0-.53-2.32-.1-2.32-1.67,0-.78.66-1.41,2-1.41a3.4,3.4,0,0,1,1.58.36l-.43,1a2.56,2.56,0,0,0-1.16-.31c-.42,0-.55.12-.55.26,0,.5,2.32.08,2.32,1.63,0,.77-.65,1.42-1.95,1.42A3.72,3.72,0,0,1,318.06,24.1Z"/><path class="cls-2" d="M323.23,21.34H322v-1.1h3.88v1.1h-1.23v3.1h-1.42Z"/><path class="cls-2" d="M328.16,23.39h-.38v1.05h-1.41v-4.2h2c1.17,0,1.91.61,1.91,1.59a1.39,1.39,0,0,1-.79,1.31l.88,1.3h-1.51Zm.14-2.06h-.52v1h.52c.39,0,.57-.19.57-.49S328.69,21.33,328.3,21.33Z"/><path class="cls-2" d="M331,20.24h1.41v4.2H331Z"/><path class="cls-2" d="M336.67,23.37v1.07h-3.49v-4.2h3.41v1.07h-2v.49h1.77v1h-1.77v.55Z"/><path class="cls-2" d="M337.33,20.24h1.42v3.1h1.89v1.1h-3.31Z"/><polygon class="cls-3" points="329.62 34.41 311.97 34.41 320.77 50.58 329.62 34.41"/><rect class="cls-3" x="292.06" y="34.41" width="8.38" height="30.4"/><polygon class="cls-3" points="323.92 60.37 317.08 60.37 309.62 46.77 309.62 64.8 331.97 64.8 331.97 46.48 323.92 60.37"/><rect class="cls-3" x="341.16" y="34.41" width="8.38" height="30.4"/><polygon class="cls-2" points="298.21 79.69 298.22 76.33 296.75 78.86 295.51 78.86 294.15 76.39 294.16 79.69 292.48 79.69 292.48 74.13 294.58 74.13 296.18 77.08 297.79 74.13 299.88 74.13 299.88 79.69 298.21 79.69"/><path class="cls-2" d="M332.63,74.16h1.65v5.53h-1.65Zm0-2.12h1.72V73.5h-1.72Z"/><path class="cls-2" d="M338.18,77.29c-.53,0-1.85,0-1.85.8a.55.55,0,0,0,.59.53,1.92,1.92,0,0,0,1.26-.53Zm1.71,2.41h-1.63l0-.53a2.79,2.79,0,0,1-1.61.65,1.76,1.76,0,0,1-1.89-1.73A1.74,1.74,0,0,1,336,76.51a5.75,5.75,0,0,1,2.22-.27c0-.59-.18-.94-.84-.94a2,2,0,0,0-1.38.63L334.9,75a3.56,3.56,0,0,1,2.53-1c1.45,0,2.46.72,2.46,2.23Z"/><path class="cls-2" d="M343.78,75.53c-.1,0-.2,0-.29,0a1.34,1.34,0,0,0-1,.44,1.44,1.44,0,0,0-.23.42v3.33h-1.66V74.15h1.61l0,.77a1.51,1.51,0,0,1,1.4-.88,2.78,2.78,0,0,1,.81.11c-.06.13-.69,1.38-.69,1.38"/><path class="cls-2" d="M347.81,75.69a1.73,1.73,0,0,0-1.13-.5,1,1,0,0,0-.79.44,2.48,2.48,0,0,0-.29,1.29c0,.71.25,1.7,1.15,1.7a1.63,1.63,0,0,0,1.06-.48Zm0,4,0-.48a2.26,2.26,0,0,1-1.49.56c-1.65,0-2.41-1.38-2.41-2.84a3,3,0,0,1,.72-2.1,2.28,2.28,0,0,1,1.72-.81,2.23,2.23,0,0,1,1.47.58V71.76h1.67v7.93Z"/><path class="cls-2" d="M303.29,75.27c-1,0-1.25.84-1.25,1.64s.3,1.63,1.25,1.63,1.26-.83,1.26-1.63-.3-1.64-1.26-1.64m0,4.52a2.89,2.89,0,1,1,3-2.88,2.75,2.75,0,0,1-3,2.88"/><path class="cls-2" d="M310.25,79.69V76c0-.38,0-.64-.5-.64a2.47,2.47,0,0,0-1.42.75v3.54h-1.68V74.16h1.62l0,.78a3.43,3.43,0,0,1,2.24-.9,1.25,1.25,0,0,1,1.4,1.26v4.39Z"/><path class="cls-2" d="M315.28,79.82c-1.35,0-1.81-.78-1.81-2,0-.77,0-1.54,0-2.32h-1.15V74.16h1.18l0-1.2,1.56-.42v1.62h1.75V75.5h-1.72v2.23c0,.24-.08.77.3.77a2.26,2.26,0,0,0,.92-.42l.73,1.09a3.23,3.23,0,0,1-1.81.66"/><path class="cls-2" d="M320.13,75.27a1.61,1.61,0,0,0-1,.4v2.42a1.76,1.76,0,0,0,1.14.49c.9,0,1-1.2,1-1.86s-.23-1.45-1.13-1.45m1.79,4.06a2.19,2.19,0,0,1-2.83-.12l0,.49h-1.62V71.76h1.67v2.83a2.32,2.32,0,0,1,1.52-.56,2.22,2.22,0,0,1,1.43.53,2.78,2.78,0,0,1,.93,2.25,2.93,2.93,0,0,1-1.05,2.52"/><path class="cls-2" d="M326,73.74l-.8-.81,2-1.32,1,1Zm.22,1.5a1,1,0,0,0-1,1h2a1,1,0,0,0-1-1m.14,4.54a2.88,2.88,0,0,1-.15-5.75,2.48,2.48,0,0,1,2.63,2.69,3.57,3.57,0,0,1,0,.56h-3.66a1.27,1.27,0,0,0,1.21,1.23,2.07,2.07,0,0,0,1.4-.71l1.12,1a3.51,3.51,0,0,1-2.52,1"/><path class="cls-2" d="M331.2,79.78a1.76,1.76,0,0,1-1.63-.77,2.05,2.05,0,0,1-.21-1.12V71.76H331v6.08c0,.23-.05.58.31.58a2.78,2.78,0,0,0,.53-.08l.48,1.22a3.81,3.81,0,0,1-1.12.22"/><path class="cls-2" d="M294.09,68.72h-.89v1.12h.89c.35,0,.61-.17.61-.54a.54.54,0,0,0-.61-.57m.07,1.66h-1v1.34h-.72V68.2h2a1,1,0,0,1,.92,1.08c0,.79-.53,1.08-1.26,1.09"/><path class="cls-2" d="M297.85,70.12h-.19c-.46,0-1.32,0-1.32.66a.52.52,0,0,0,.54.52,1.52,1.52,0,0,0,1-.49Zm.72,1.6h-.7l0-.33a2,2,0,0,1-1.12.41,1,1,0,0,1-1.09-1,1.07,1.07,0,0,1,.69-1,3.83,3.83,0,0,1,1.51-.18c0-.52-.08-.93-.7-.93a1.23,1.23,0,0,0-.87.4l-.45-.43a1.92,1.92,0,0,1,1.36-.53,1.37,1.37,0,0,1,1.26.66,1.78,1.78,0,0,1,.13.71Z"/><path class="cls-2" d="M300.66,72.17a2.27,2.27,0,0,1-.22.54,1,1,0,0,1-.95.43,2.15,2.15,0,0,1-.5-.07V72.5a1.4,1.4,0,0,0,.41,0c.39,0,.54-.2.65-.55l.13-.43a3.21,3.21,0,0,1-.18-.37l-1.12-3h.75l.86,2.45a2.06,2.06,0,0,1,0,.35,2.06,2.06,0,0,1,0-.35l.78-2.45H302Z"/><path class="cls-2" d="M303.55,71.82a1.92,1.92,0,0,1-1.35-.5l.43-.45a1.26,1.26,0,0,0,.89.39c.27,0,.65-.09.65-.43,0-.66-1.86-.48-1.86-1.64a1.15,1.15,0,0,1,1.27-1.06,1.86,1.86,0,0,1,1.17.37l-.38.48a1.28,1.28,0,0,0-.8-.31c-.25,0-.57.13-.57.42a.39.39,0,0,0,.14.29,1.08,1.08,0,0,0,.46.21c.58.19,1.25.45,1.25,1.17s-.65,1.06-1.3,1.06"/><path class="cls-2" d="M309,69.16a1.28,1.28,0,0,0-.89-.43.79.79,0,0,0-.64.37,1.68,1.68,0,0,0-.21.91c0,.58.21,1.22.9,1.22a1.26,1.26,0,0,0,.84-.42Zm0,2.56,0-.3a1.4,1.4,0,0,1-.94.35c-1,0-1.53-.86-1.53-1.8a1.87,1.87,0,0,1,.46-1.32,1.44,1.44,0,0,1,1.09-.52,1.42,1.42,0,0,1,.93.37V66.7h.72v5Z"/><path class="cls-2" d="M312.77,69.47a.79.79,0,0,0-.78-.8c-.53,0-.79.41-.86.88h1.64Zm.67.64h-2.35a1.45,1.45,0,0,0,.16.65.93.93,0,0,0,.79.47,1.31,1.31,0,0,0,.9-.41l.45.43a1.82,1.82,0,0,1-1.35.53,1.62,1.62,0,0,1-1.68-1.84,1.63,1.63,0,0,1,1.59-1.8,1.5,1.5,0,0,1,1.52,1.69,1.41,1.41,0,0,1,0,.28"/><path class="cls-3" d="M294.15,82.35l-.85,2.19h1.75Zm1.47,3.73L295.21,85h-2.12l-.4,1.07h-.61l1.72-4.15h.72l1.71,4.15Z"/><path class="cls-3" d="M300.47,84.85a1.56,1.56,0,0,1-.12.74,1.62,1.62,0,0,1-1.36.57A1.9,1.9,0,0,1,297,84a2,2,0,0,1,2-2.16,2,2,0,0,1,1.46.63l-.37.37a1.57,1.57,0,0,0-1.15-.56c-.95,0-1.39.9-1.39,1.73S298,85.7,299,85.7c.5,0,1-.11,1-.71v-.66h-1.05v-.46h1.58Z"/><path class="cls-3" d="M305.12,84.85a1.46,1.46,0,0,1-.13.74,1.59,1.59,0,0,1-1.35.57,1.91,1.91,0,0,1-2-2.16,2,2,0,0,1,3.5-1.53l-.37.37a1.57,1.57,0,0,0-1.15-.56c-1,0-1.39.9-1.39,1.73s.41,1.69,1.41,1.69c.5,0,1-.11,1-.71,0-.22,0-.44,0-.66h-1v-.46h1.58Z"/><polygon class="cls-3" points="306.48 86.08 306.48 81.93 307.01 81.93 307.01 85.61 309.09 85.6 309.09 86.08 306.48 86.08"/><path class="cls-3" d="M311.79,82.31c-1,0-1.4.81-1.4,1.69s.4,1.69,1.4,1.69,1.4-.8,1.4-1.69-.39-1.69-1.4-1.69m0,3.83a1.9,1.9,0,0,1-2-2.11,2,2,0,1,1,4,0,1.9,1.9,0,0,1-2,2.11"/><polygon class="cls-3" points="319.07 86.08 319.09 82.41 317.71 85.37 317.01 85.37 315.66 82.36 315.68 86.08 315.14 86.08 315.14 81.94 316.05 81.94 317.35 84.96 318.69 81.94 319.61 81.94 319.61 86.08 319.07 86.08"/><path class="cls-3" d="M322.27,81.35l-.26-.27,1.06-.7.37.38Zm-1.06,4.73V82H324v.48h-2.29v1.29h1.87v.47h-1.87v1.45h2.32v.48Z"/><path class="cls-3" d="M327.22,82.37h-1.3v1.4h1.24c.45,0,.84-.22.84-.72s-.32-.68-.78-.68m.91,3.71-.94-1.85h-1.27v1.85h-.54V81.92h2.1A1.09,1.09,0,0,1,328.57,83a1.12,1.12,0,0,1-.83,1.13l1,1.93Z"/><path class="cls-3" d="M331.54,82.35l-.85,2.19h1.75ZM333,86.08,332.61,85h-2.12l-.41,1.07h-.6l1.71-4.15h.73l1.7,4.15Z"/><polygon class="cls-3" points="335.49 82.42 335.49 86.08 334.94 86.08 334.94 82.42 333.52 82.43 333.52 81.95 336.9 81.95 336.9 82.43 335.49 82.42"/><polygon class="cls-3" points="337.6 86.08 337.6 85.63 338.4 85.63 338.4 82.4 337.65 82.4 337.65 81.95 339.67 81.95 339.67 82.4 338.92 82.4 338.92 85.63 339.73 85.63 339.73 86.08 337.6 86.08"/><path class="cls-3" d="M342.61,82.31c-1,0-1.39.81-1.39,1.69s.39,1.69,1.39,1.69,1.4-.8,1.4-1.69-.39-1.69-1.4-1.69m0,3.83a1.9,1.9,0,0,1-2-2.11,2,2,0,1,1,4,0,1.91,1.91,0,0,1-2,2.11"/><polygon class="cls-3" points="348.63 86.08 346.47 82.42 346.49 86.08 345.95 86.08 345.95 81.94 346.8 81.94 348.96 85.61 348.94 81.94 349.48 81.94 349.48 86.08 348.63 86.08"/><path class="cls-3" d="M33.53,59.12a10.93,10.93,0,0,0,2.22.45c.74.07,1.48.1,2.22.1a18.6,18.6,0,0,0,5.35-.76,19.49,19.49,0,0,0,4.83-2.19,18.23,18.23,0,0,0,6.9-8l13.89,14a37.44,37.44,0,0,1-6.08,6.73,38.13,38.13,0,0,1-7.43,5.07A37.13,37.13,0,0,1,47,77.62a38.65,38.65,0,0,1-23.81-1.84,37.31,37.31,0,0,1-12.08-8.12A37.93,37.93,0,0,1,3,55.26,40.57,40.57,0,0,1,0,39.47,41.94,41.94,0,0,1,3,23.36,36.41,36.41,0,0,1,23.22,3,38.48,38.48,0,0,1,38,.11a37.42,37.42,0,0,1,9.1,1.11A38.06,38.06,0,0,1,55.5,4.41,38.57,38.57,0,0,1,63,9.51a38.12,38.12,0,0,1,6.11,6.77ZM43.25,20a11,11,0,0,0-2.6-.62A25.68,25.68,0,0,0,38,19.27a18.91,18.91,0,0,0-7.32,1.42,17.44,17.44,0,0,0-6,4.06,19.11,19.11,0,0,0-4,6.36,22.73,22.73,0,0,0-1.46,8.36c0,.69,0,1.48.1,2.36s.19,1.77.35,2.67.36,1.77.59,2.61a9.72,9.72,0,0,0,.9,2.22Z"/><path class="cls-4" d="M86.64,32.74H80.09V0h13.1a12.86,12.86,0,0,1,3.47.47,13.07,13.07,0,0,1,3.12,1.32,13.47,13.47,0,0,1,2.65,2.06,12.93,12.93,0,0,1,2,2.66,13.4,13.4,0,0,1,1.33,3.13,12.8,12.8,0,0,1,.46,3.47,12.81,12.81,0,0,1-1,5.08,13.17,13.17,0,0,1-7,7,12.61,12.61,0,0,1-5.08,1H86.64Zm0-26.19V19.66h6.55a6.24,6.24,0,0,0,2.54-.52,6.6,6.6,0,0,0,3.48-3.49,6.61,6.61,0,0,0,0-5.09,6.6,6.6,0,0,0-3.48-3.49,6.24,6.24,0,0,0-2.54-.52Z"/><path class="cls-4" d="M132.55,32.74H110.11V0h22.44V6.55H116.66v6.56h10.76v6.55H116.66v6.53h15.89Z"/><path class="cls-4" d="M143.69,32.74h-6.55V0h13.11a12.86,12.86,0,0,1,3.47.47,13.07,13.07,0,0,1,3.12,1.32,13.41,13.41,0,0,1,2.64,2.06,13,13,0,0,1,3.38,5.79,13,13,0,0,1,0,6.75,13.58,13.58,0,0,1-1.21,3,13.12,13.12,0,0,1-1.93,2.65,12.91,12.91,0,0,1-2.56,2.1l3.63,8.56h-7L151,26.14l-7.33.05Zm0-26.19V19.66h6.56a6.16,6.16,0,0,0,2.53-.52,6.63,6.63,0,0,0,2.08-1.4,6.56,6.56,0,0,0,1.4-2.09,6.49,6.49,0,0,0,0-5.09,6.56,6.56,0,0,0-1.4-2.09,6.63,6.63,0,0,0-2.08-1.4,6.16,6.16,0,0,0-2.53-.52Z"/><path class="cls-4" d="M174.18,32.74h-6.56V0h6.56Z"/><path class="cls-4" d="M78.17,56a9.59,9.59,0,0,1,.77-3.82A10.15,10.15,0,0,1,81.06,49a10,10,0,0,1,3.11-2.11A9.41,9.41,0,0,1,88,46.13h15v6.55H88a3.34,3.34,0,0,0-1.27.25,3.13,3.13,0,0,0-1,.7,3.23,3.23,0,0,0-.7,1A3.18,3.18,0,0,0,84.72,56,3.33,3.33,0,0,0,85,57.24a3.27,3.27,0,0,0,.7,1,3.1,3.1,0,0,0,1,.69,3.17,3.17,0,0,0,1.27.26h6.56a9.61,9.61,0,0,1,3.82.76,9.75,9.75,0,0,1,5.23,5.23,9.86,9.86,0,0,1,0,7.64,9.93,9.93,0,0,1-2.1,3.11,9.82,9.82,0,0,1-3.13,2.11,9.46,9.46,0,0,1-3.82.78H80V72.32H94.54a3.43,3.43,0,0,0,1.28-.25,3.21,3.21,0,0,0,1.73-1.74,3.18,3.18,0,0,0,.25-1.28,3.25,3.25,0,0,0-.25-1.28A3.23,3.23,0,0,0,95.82,66a3.25,3.25,0,0,0-1.28-.25H88A9.41,9.41,0,0,1,84.17,65a10.13,10.13,0,0,1-3.11-2.11,10,10,0,0,1-2.12-3.13A9.62,9.62,0,0,1,78.17,56Z"/><path class="cls-4" d="M134.79,75.51a16.76,16.76,0,0,1-11,4.07,16.33,16.33,0,0,1-4.49-.61,16.81,16.81,0,0,1-4-1.71,17,17,0,0,1-3.44-2.66,16.84,16.84,0,0,1-4.37-7.48,16.59,16.59,0,0,1-.6-4.48,16.79,16.79,0,0,1,2.31-8.55,17.14,17.14,0,0,1,6.1-6.1,16.85,16.85,0,0,1,8.53-2.32,17,17,0,0,1,5.87,1,16.16,16.16,0,0,1,5.11,3l-3.47,5.71a9.8,9.8,0,0,0-3.4-2.39,10.34,10.34,0,0,0-4.11-.83,10.1,10.1,0,0,0-4.07.82,10.93,10.93,0,0,0-3.31,2.22,10.38,10.38,0,0,0-2.23,3.31,10.17,10.17,0,0,0-.83,4.06,10,10,0,0,0,.83,4,10.46,10.46,0,0,0,5.54,5.53,10.11,10.11,0,0,0,4.07.83,10.35,10.35,0,0,0,4.11-.84,9.78,9.78,0,0,0,3.4-2.38Z"/><path class="cls-4" d="M145.13,78.87h-6.55V46.13h6.55V59.24h13.09V46.13h6.55V78.87h-6.55V65.79H145.13Z"/><path class="cls-4" d="M202.92,62.64a16.59,16.59,0,0,1-.6,4.48,17.29,17.29,0,0,1-1.71,4A16.86,16.86,0,0,1,198,74.6a17.24,17.24,0,0,1-3.43,2.66A16.85,16.85,0,0,1,186,79.58a16.21,16.21,0,0,1-4.48-.61,17,17,0,0,1-11.85-11.85,16.21,16.21,0,0,1-.61-4.48,16.85,16.85,0,0,1,2.32-8.54A17.24,17.24,0,0,1,174,50.67,16.86,16.86,0,0,1,177.47,48a17.29,17.29,0,0,1,4.05-1.71,16.59,16.59,0,0,1,4.48-.6A16.71,16.71,0,0,1,194.54,48a16.77,16.77,0,0,1,6.07,6.07,16.71,16.71,0,0,1,2.31,8.54Zm-6.51,0a10.16,10.16,0,0,0-.82-4.06,10.3,10.3,0,0,0-5.53-5.53,10.16,10.16,0,0,0-4.06-.82,10.06,10.06,0,0,0-4.06.82,10.69,10.69,0,0,0-3.31,2.22,10.41,10.41,0,0,0-2.24,3.31,10.16,10.16,0,0,0-.82,4.06,10,10,0,0,0,.82,4,10.71,10.71,0,0,0,2.24,3.3,10.38,10.38,0,0,0,3.31,2.23A10.06,10.06,0,0,0,186,73a10.17,10.17,0,0,0,4.06-.83A10.38,10.38,0,0,0,193.37,70a11,11,0,0,0,2.22-3.3A10,10,0,0,0,196.41,62.64Z"/><path class="cls-4" d="M239.29,62.64a16.59,16.59,0,0,1-.6,4.48,17.7,17.7,0,0,1-1.7,4,16.91,16.91,0,0,1-2.65,3.43,17.24,17.24,0,0,1-3.43,2.66,16.85,16.85,0,0,1-8.54,2.32,16.21,16.21,0,0,1-4.48-.61,17,17,0,0,1-7.48-4.37A16.84,16.84,0,0,1,206,67.12a16.21,16.21,0,0,1-.61-4.48,16.85,16.85,0,0,1,2.32-8.54,17.24,17.24,0,0,1,2.66-3.43A16.65,16.65,0,0,1,213.85,48a17,17,0,0,1,4-1.71,16.59,16.59,0,0,1,4.48-.6A16.71,16.71,0,0,1,230.91,48a16.86,16.86,0,0,1,7.78,10.11A16.79,16.79,0,0,1,239.29,62.64Zm-6.51,0a10.16,10.16,0,0,0-.82-4.06,10.3,10.3,0,0,0-5.53-5.53,10.16,10.16,0,0,0-4.06-.82,10.06,10.06,0,0,0-4.06.82A10.81,10.81,0,0,0,215,55.27a10.41,10.41,0,0,0-2.24,3.31,10.16,10.16,0,0,0-.82,4.06,10,10,0,0,0,.82,4A10.71,10.71,0,0,0,215,70a10.5,10.5,0,0,0,3.31,2.23,10.06,10.06,0,0,0,4.06.83,10.17,10.17,0,0,0,4.06-.83A10.38,10.38,0,0,0,229.74,70a11,11,0,0,0,2.22-3.3A10,10,0,0,0,232.78,62.64Z"/><path class="cls-4" d="M266.51,78.87H243.58V46.13h6.56V72.32h16.37Z"/><path class="cls-3" d="M202.26,32.78a18.46,18.46,0,0,1-6.12-.94,8.7,8.7,0,0,1-4.21-2.91,8.29,8.29,0,0,1-1.57-5.06,10.07,10.07,0,0,1,.39-2.6,7.36,7.36,0,0,1,1.47-2.8,8.56,8.56,0,0,1,3.05-2.28,13.42,13.42,0,0,1,5.11-1.09l1.16,0a22.43,22.43,0,0,0,3.3-2.43,6,6,0,0,0,1.44-1.9,4.74,4.74,0,0,0,.36-1.83,2,2,0,0,0-.57-1.52,2.09,2.09,0,0,0-1.5-.55,2.15,2.15,0,0,0-1.59.62,2.55,2.55,0,0,0-.62,1.88,3,3,0,0,0,.29,1.28,7.61,7.61,0,0,0,1,1.59c.52.62,1.25,1.42,2.2,2.38s2.17,2.19,3.68,3.66,2.68,2.61,3.71,3.59a21.65,21.65,0,0,0,2.77,2.29,6.72,6.72,0,0,0,2.44,1.06,7.54,7.54,0,0,0,2.79-.05l-.58,7.66a28.6,28.6,0,0,1-4.07-.26,11.87,11.87,0,0,1-3.44-1.09A19.81,19.81,0,0,1,209.51,29c-1.33-1.06-2.95-2.47-4.84-4.23q-3.81-3.62-6.12-5.95a35.24,35.24,0,0,1-3.49-4,9.82,9.82,0,0,1-1.57-3,11,11,0,0,1-.38-3,8.32,8.32,0,0,1,1.15-4.19,8.71,8.71,0,0,1,3.64-3.33,16.66,16.66,0,0,1,12.81,0,8,8,0,0,1,3.43,3.13,7.79,7.79,0,0,1,1,3.8,8.23,8.23,0,0,1-1.3,4.51A9.77,9.77,0,0,1,210,16.09a18,18,0,0,1-6.24,1.76l-1.4,1a14.27,14.27,0,0,0-1.71,1.47,3.57,3.57,0,0,0-.81,1.3,4.64,4.64,0,0,0-.22,1.52,2.38,2.38,0,0,0,.5,1.47,3.29,3.29,0,0,0,1.45,1,6.26,6.26,0,0,0,2.24.36,10.73,10.73,0,0,0,3.56-.55,28.64,28.64,0,0,0,3.18-1.33l.78-1.25a15,15,0,0,0,1.1-2.72,13,13,0,0,0,.44-3.64h7A15.69,15.69,0,0,1,218.71,22a11.05,11.05,0,0,1-3.11,4.17l-1.92,1.25a9.81,9.81,0,0,1-4.31,3.91A16,16,0,0,1,202.26,32.78Z"/><circle class="cls-3" cx="68.92" cy="39.3" r="3.6"/><circle class="cls-3" cx="185.91" cy="62.46" r="4.89"/><circle class="cls-3" cx="222.43" cy="62.46" r="4.89"/><path class="cls-4" d="M82.53,91a2.79,2.79,0,0,1,1.23.26,2,2,0,0,1,.82.74,2.3,2.3,0,0,1,0,2.27,2,2,0,0,1-.82.74,2.79,2.79,0,0,1-1.23.26H80.91V98h-.85V91ZM82.4,94.5a1.77,1.77,0,0,0,1.21-.34,1.29,1.29,0,0,0,.38-1,1.27,1.27,0,0,0-.38-1,1.77,1.77,0,0,0-1.21-.34H80.91V94.5Z"/><path class="cls-4" d="M88.64,98.14a2.72,2.72,0,0,1-1.34-.33,2.32,2.32,0,0,1-.91-1,3.48,3.48,0,0,1,0-3,2.36,2.36,0,0,1,.9-1,2.54,2.54,0,0,1,1.3-.33,2.42,2.42,0,0,1,1.27.32,2.1,2.1,0,0,1,.8.87A2.7,2.7,0,0,1,90.93,95c0,.12,0,.23,0,.33a1,1,0,0,1,0,.26H86.61v-.75h3.91l-.43.09a1.59,1.59,0,0,0-.42-1.18,1.49,1.49,0,0,0-1.1-.41,1.74,1.74,0,0,0-.9.23,1.59,1.59,0,0,0-.58.69,2.58,2.58,0,0,0-.21,1.09,2.39,2.39,0,0,0,.22,1.08,1.54,1.54,0,0,0,.6.7,2.05,2.05,0,0,0,1.87,0,1.7,1.7,0,0,0,.59-.6l.67.39a2.23,2.23,0,0,1-.52.62,2,2,0,0,1-.73.41A2.77,2.77,0,0,1,88.64,98.14Zm.17-8.06h.93l-1,1.77H88Z"/><path class="cls-4" d="M92.7,98v-5.3h.69l.12.87a1.55,1.55,0,0,1,.65-.73,2.15,2.15,0,0,1,1-.25l.3,0a.77.77,0,0,1,.28.08l-.15.77-.25-.06-.4,0a1.31,1.31,0,0,0-.66.19,1.47,1.47,0,0,0-.55.58,1.92,1.92,0,0,0-.23,1V98Z"/><path class="cls-4" d="M97.61,91.71a.65.65,0,0,1-.46-.17.61.61,0,0,1-.17-.46.6.6,0,0,1,.17-.46.62.62,0,0,1,.46-.18.62.62,0,0,1,.64.64.62.62,0,0,1-.18.46A.64.64,0,0,1,97.61,91.71Zm.43,1V98h-.85v-5.3Z"/><path class="cls-4" d="M102.07,98.14a3.09,3.09,0,0,1-1.42-.33,2.28,2.28,0,0,1-1-.94l.72-.51a1.78,1.78,0,0,0,.68.76,2.07,2.07,0,0,0,1.09.27,1.59,1.59,0,0,0,.88-.21.68.68,0,0,0,.32-.57.65.65,0,0,0-.15-.41.94.94,0,0,0-.54-.27l-1.28-.26a2.06,2.06,0,0,1-1.1-.53,1.32,1.32,0,0,1-.34-.93,1.4,1.4,0,0,1,.25-.79,1.8,1.8,0,0,1,.71-.58,2.61,2.61,0,0,1,1.09-.22,2.68,2.68,0,0,1,1.32.31,2,2,0,0,1,.81.87l-.71.47a1.33,1.33,0,0,0-.58-.69,1.8,1.8,0,0,0-.84-.21,1.78,1.78,0,0,0-.65.1,1,1,0,0,0-.42.29.73.73,0,0,0-.14.42.64.64,0,0,0,.16.43,1,1,0,0,0,.59.28l1.33.28a1.84,1.84,0,0,1,1,.49,1.23,1.23,0,0,1,.29.82,1.47,1.47,0,0,1-.26.88,1.7,1.7,0,0,1-.74.57A2.75,2.75,0,0,1,102.07,98.14Z"/><path class="cls-4" d="M108.11,92.62a2.57,2.57,0,0,1,1,.17,2.18,2.18,0,0,1,.73.49,2.46,2.46,0,0,1,.5.75l-.81.39a1.57,1.57,0,0,0-.51-.78,1.42,1.42,0,0,0-.9-.27,1.78,1.78,0,0,0-.91.23,1.52,1.52,0,0,0-.58.69,2.75,2.75,0,0,0-.2,1.09,2.7,2.7,0,0,0,.2,1.08,1.5,1.5,0,0,0,.58.7,1.78,1.78,0,0,0,.91.23,1.94,1.94,0,0,0,.72-.12,1.34,1.34,0,0,0,.5-.37,1.44,1.44,0,0,0,.27-.6l.78.28a2.53,2.53,0,0,1-.49.83,2,2,0,0,1-.75.54,2.79,2.79,0,0,1-2.33-.14,2.32,2.32,0,0,1-.91-1,3.48,3.48,0,0,1,0-3,2.32,2.32,0,0,1,.91-1A2.65,2.65,0,0,1,108.11,92.62Z"/><path class="cls-4" d="M114.2,92.62a2.62,2.62,0,0,1,1.33.33,2.32,2.32,0,0,1,.91,1,3.48,3.48,0,0,1,0,3,2.32,2.32,0,0,1-.91,1,2.83,2.83,0,0,1-2.65,0,2.34,2.34,0,0,1-.92-1,3.58,3.58,0,0,1,0-3,2.34,2.34,0,0,1,.92-1A2.61,2.61,0,0,1,114.2,92.62Zm0,.74a1.68,1.68,0,0,0-.92.24,1.54,1.54,0,0,0-.59.69,2.58,2.58,0,0,0-.21,1.09,2.54,2.54,0,0,0,.21,1.08,1.52,1.52,0,0,0,.59.7,1.82,1.82,0,0,0,1.84,0,1.52,1.52,0,0,0,.59-.7,2.54,2.54,0,0,0,.21-1.08,2.58,2.58,0,0,0-.21-1.09,1.54,1.54,0,0,0-.59-.69A1.68,1.68,0,0,0,114.2,93.36Z"/><path class="cls-4" d="M119.33,90.29v6.39a.8.8,0,0,0,.15.56.66.66,0,0,0,.48.15,1.75,1.75,0,0,0,.35,0l.37-.11-.14.74a2,2,0,0,1-.37.11,2.85,2.85,0,0,1-.41,0,1.21,1.21,0,0,1-1-.35,1.57,1.57,0,0,1-.32-1.07V90.29Z"/><path class="cls-4" d="M125,94.61a1.23,1.23,0,0,0-.32-.92,1.18,1.18,0,0,0-.9-.32,1.83,1.83,0,0,0-.93.23,1.43,1.43,0,0,0-.56.77l-.69-.42a1.83,1.83,0,0,1,.78-1,2.86,2.86,0,0,1,2.46-.17,1.67,1.67,0,0,1,.74.59,1.81,1.81,0,0,1,.27,1V97c0,.26.14.38.4.38a1.33,1.33,0,0,0,.4,0l0,.67a1.49,1.49,0,0,1-1.1,0,.88.88,0,0,1-.38-.36A1.21,1.21,0,0,1,125,97v-.1l.21,0a1.35,1.35,0,0,1-.43.67,2,2,0,0,1-.69.38,2.24,2.24,0,0,1-.75.13,2.49,2.49,0,0,1-.87-.16,1.49,1.49,0,0,1-.64-.48,1.34,1.34,0,0,1-.24-.81,1.3,1.3,0,0,1,.4-1,2.14,2.14,0,0,1,1.1-.52l2.1-.41v.7l-1.7.35a2.09,2.09,0,0,0-.78.29.63.63,0,0,0-.25.53.65.65,0,0,0,.26.54,1.13,1.13,0,0,0,.73.2,1.87,1.87,0,0,0,.59-.08,1.5,1.5,0,0,0,.51-.24,1.39,1.39,0,0,0,.35-.41,1.35,1.35,0,0,0,.12-.59Z"/><path class="cls-4" d="M128.51,91.71a.65.65,0,0,1-.46-.17.62.62,0,0,1-.18-.46.6.6,0,0,1,.18-.46.62.62,0,0,1,.46-.18.62.62,0,0,1,.64.64.62.62,0,0,1-.18.46A.64.64,0,0,1,128.51,91.71Zm.43,1V98h-.85v-5.3Z"/><path class="cls-4" d="M131.07,98v-5.3h.68l.12.87a1.55,1.55,0,0,1,.65-.73,2.15,2.15,0,0,1,1-.25l.3,0a.77.77,0,0,1,.28.08l-.15.77-.25-.06-.39,0a1.34,1.34,0,0,0-.67.19,1.47,1.47,0,0,0-.55.58,1.92,1.92,0,0,0-.23,1V98Z"/><path class="cls-4" d="M137.59,98.14a2.72,2.72,0,0,1-1.34-.33,2.32,2.32,0,0,1-.91-1,3.48,3.48,0,0,1,0-3,2.36,2.36,0,0,1,.9-1,2.54,2.54,0,0,1,1.3-.33,2.42,2.42,0,0,1,1.27.32,2.1,2.1,0,0,1,.8.87,2.7,2.7,0,0,1,.27,1.22c0,.12,0,.23,0,.33a1,1,0,0,1,0,.26h-4.28v-.75h3.91L139,95a1.59,1.59,0,0,0-.42-1.18,1.49,1.49,0,0,0-1.1-.41,1.74,1.74,0,0,0-.9.23,1.59,1.59,0,0,0-.58.69,2.58,2.58,0,0,0-.21,1.09,2.39,2.39,0,0,0,.22,1.08,1.54,1.54,0,0,0,.6.7,2.05,2.05,0,0,0,1.87,0,1.7,1.7,0,0,0,.59-.6l.67.39a2.23,2.23,0,0,1-.52.62,2,2,0,0,1-.73.41A2.77,2.77,0,0,1,137.59,98.14Z"/><path class="cls-4" d="M147.64,98.14a2.72,2.72,0,0,1-1.34-.33,2.26,2.26,0,0,1-.91-1,3.48,3.48,0,0,1,0-3,2.23,2.23,0,0,1,.9-1,2.54,2.54,0,0,1,1.3-.33,2.44,2.44,0,0,1,1.27.32,2.1,2.1,0,0,1,.8.87,2.7,2.7,0,0,1,.27,1.22c0,.12,0,.23,0,.33s0,.19,0,.26h-4.28v-.75h3.91l-.44.09a1.59,1.59,0,0,0-.41-1.18,1.49,1.49,0,0,0-1.1-.41,1.72,1.72,0,0,0-.9.23,1.59,1.59,0,0,0-.58.69,2.58,2.58,0,0,0-.21,1.09,2.39,2.39,0,0,0,.22,1.08,1.54,1.54,0,0,0,.6.7,1.76,1.76,0,0,0,2.46-.59l.67.39a2.23,2.23,0,0,1-.52.62,2.09,2.09,0,0,1-.73.41A2.77,2.77,0,0,1,147.64,98.14Z"/><path class="cls-4" d="M154.72,92.73v.73h-3.83v-.73Zm-1.93-1.51v5.35a.72.72,0,0,0,.23.58.84.84,0,0,0,.57.19,1.25,1.25,0,0,0,.53-.1,1.64,1.64,0,0,0,.4-.29l.3.71a1.87,1.87,0,0,1-.58.35,2.26,2.26,0,0,1-.77.13,1.86,1.86,0,0,1-.75-.15,1.18,1.18,0,0,1-.56-.45,1.55,1.55,0,0,1-.21-.82V91.46Z"/><path class="cls-4" d="M161.83,98.14a3.1,3.1,0,0,1-1.43-.33,2.33,2.33,0,0,1-1-.94l.72-.51a1.85,1.85,0,0,0,.68.76,2.1,2.1,0,0,0,1.09.27,1.59,1.59,0,0,0,.88-.21.68.68,0,0,0,.32-.57.65.65,0,0,0-.15-.41.91.91,0,0,0-.54-.27l-1.27-.26a2.06,2.06,0,0,1-1.11-.53,1.36,1.36,0,0,1-.33-.93,1.39,1.39,0,0,1,.24-.79,1.87,1.87,0,0,1,.71-.58,2.61,2.61,0,0,1,1.09-.22,2.72,2.72,0,0,1,1.33.31,2,2,0,0,1,.8.87l-.71.47a1.28,1.28,0,0,0-.58-.69,1.93,1.93,0,0,0-1.49-.11.92.92,0,0,0-.41.29.68.68,0,0,0-.15.42.64.64,0,0,0,.16.43,1,1,0,0,0,.6.28l1.32.28a1.84,1.84,0,0,1,1,.49,1.18,1.18,0,0,1,.3.82,1.48,1.48,0,0,1-.27.88,1.64,1.64,0,0,1-.74.57A2.73,2.73,0,0,1,161.83,98.14Z"/><path class="cls-4" d="M167.86,92.62a2.66,2.66,0,0,1,1,.17,2.14,2.14,0,0,1,.72.49,2.46,2.46,0,0,1,.5.75l-.8.39a1.65,1.65,0,0,0-.52-.78,1.41,1.41,0,0,0-.89-.27,1.79,1.79,0,0,0-.92.23,1.59,1.59,0,0,0-.58.69,2.75,2.75,0,0,0-.2,1.09,2.7,2.7,0,0,0,.2,1.08,1.56,1.56,0,0,0,.58.7,1.79,1.79,0,0,0,.92.23,1.92,1.92,0,0,0,.71-.12,1.34,1.34,0,0,0,.5-.37,1.44,1.44,0,0,0,.27-.6l.78.28a2.53,2.53,0,0,1-.49.83,2,2,0,0,1-.75.54,2.62,2.62,0,0,1-1,.19,2.65,2.65,0,0,1-1.33-.33,2.32,2.32,0,0,1-.91-1,3.48,3.48,0,0,1,0-3,2.32,2.32,0,0,1,.91-1A2.65,2.65,0,0,1,167.86,92.62Z"/><path class="cls-4" d="M174,92.62a2.62,2.62,0,0,1,1.33.33,2.32,2.32,0,0,1,.91,1,3.48,3.48,0,0,1,0,3,2.32,2.32,0,0,1-.91,1,2.83,2.83,0,0,1-2.65,0,2.26,2.26,0,0,1-.91-1,3.48,3.48,0,0,1,0-3,2.26,2.26,0,0,1,.91-1A2.64,2.64,0,0,1,174,92.62Zm0,.74a1.68,1.68,0,0,0-.92.24,1.61,1.61,0,0,0-.59.69,2.59,2.59,0,0,0-.2,1.09,2.54,2.54,0,0,0,.2,1.08,1.58,1.58,0,0,0,.59.7,1.82,1.82,0,0,0,1.84,0,1.52,1.52,0,0,0,.59-.7,2.54,2.54,0,0,0,.21-1.08,2.58,2.58,0,0,0-.21-1.09,1.54,1.54,0,0,0-.59-.69A1.68,1.68,0,0,0,174,93.36Z"/><path class="cls-4" d="M179.08,90.29v6.39a.8.8,0,0,0,.15.56.66.66,0,0,0,.48.15,1.69,1.69,0,0,0,.35,0l.37-.11-.14.74a2,2,0,0,1-.37.11,2.85,2.85,0,0,1-.41,0,1.22,1.22,0,0,1-1-.35,1.57,1.57,0,0,1-.32-1.07V90.29Z"/><path class="cls-4" d="M184.78,94.61a1.27,1.27,0,0,0-.32-.92,1.2,1.2,0,0,0-.9-.32,1.84,1.84,0,0,0-.94.23,1.43,1.43,0,0,0-.56.77l-.69-.42a1.85,1.85,0,0,1,.79-1,2.6,2.6,0,0,1,1.42-.37,2.68,2.68,0,0,1,1,.2,1.64,1.64,0,0,1,.73.59,1.81,1.81,0,0,1,.27,1V97c0,.26.14.38.41.38a1.31,1.31,0,0,0,.39,0l0,.67a1.31,1.31,0,0,1-.56.1,1.26,1.26,0,0,1-.55-.11.88.88,0,0,1-.38-.36,1.21,1.21,0,0,1-.14-.6v-.1l.22,0a1.36,1.36,0,0,1-.44.67,1.8,1.8,0,0,1-.69.38,2.19,2.19,0,0,1-.75.13,2.49,2.49,0,0,1-.87-.16,1.49,1.49,0,0,1-.64-.48,1.34,1.34,0,0,1-.24-.81,1.3,1.3,0,0,1,.4-1,2.13,2.13,0,0,1,1.11-.52l2.1-.41v.7l-1.71.35a2.09,2.09,0,0,0-.78.29.63.63,0,0,0-.25.53.67.67,0,0,0,.26.54,1.14,1.14,0,0,0,.74.2,1.85,1.85,0,0,0,.58-.08,1.5,1.5,0,0,0,.51-.24,1.25,1.25,0,0,0,.35-.41,1.35,1.35,0,0,0,.13-.59Z"/><path class="cls-4" d="M188.26,91.71a.65.65,0,0,1-.46-.17.61.61,0,0,1-.17-.46.6.6,0,0,1,.17-.46.62.62,0,0,1,.46-.18.62.62,0,0,1,.64.64.62.62,0,0,1-.18.46A.64.64,0,0,1,188.26,91.71Zm.43,1V98h-.85v-5.3Z"/><path class="cls-4" d="M190.82,98v-5.3h.69l.11.87a1.55,1.55,0,0,1,.65-.73,2.15,2.15,0,0,1,1-.25l.3,0a.77.77,0,0,1,.28.08l-.15.77-.25-.06-.39,0a1.34,1.34,0,0,0-.67.19,1.54,1.54,0,0,0-.55.58,1.92,1.92,0,0,0-.23,1V98Z"/><path class="cls-4" d="M197.35,98.14a2.66,2.66,0,0,1-1.34-.33,2.28,2.28,0,0,1-.92-1,3.48,3.48,0,0,1,0-3,2.36,2.36,0,0,1,.9-1,2.56,2.56,0,0,1,1.3-.33,2.42,2.42,0,0,1,1.27.32,2,2,0,0,1,.8.87,2.71,2.71,0,0,1,.28,1.22c0,.12,0,.23,0,.33a1.59,1.59,0,0,1,0,.26h-4.28v-.75h3.91l-.43.09a1.59,1.59,0,0,0-.42-1.18,1.49,1.49,0,0,0-1.1-.41,1.71,1.71,0,0,0-.89.23,1.61,1.61,0,0,0-.59.69,2.75,2.75,0,0,0-.2,1.09,2.54,2.54,0,0,0,.21,1.08,1.54,1.54,0,0,0,.6.7,2.05,2.05,0,0,0,1.87,0,1.7,1.7,0,0,0,.59-.6l.67.39a2.2,2.2,0,0,1-.51.62,2.14,2.14,0,0,1-.74.41A2.71,2.71,0,0,1,197.35,98.14Z"/><path class="cls-4" d="M205.18,98v-5.3h.74l.07,1.19-.13-.12a1.76,1.76,0,0,1,.45-.68,1.65,1.65,0,0,1,.67-.38,2.53,2.53,0,0,1,.77-.12,2.48,2.48,0,0,1,1,.22,1.84,1.84,0,0,1,.75.66,2.09,2.09,0,0,1,.28,1.14V98H209V94.94a1.63,1.63,0,0,0-.37-1.23,1.32,1.32,0,0,0-.93-.34,1.76,1.76,0,0,0-.76.18,1.41,1.41,0,0,0-.63.58,2,2,0,0,0-.25,1.08V98Z"/><path class="cls-4" d="M213.82,98.14a2.57,2.57,0,0,1-1-.19,1.63,1.63,0,0,1-.73-.62,2,2,0,0,1-.28-1.12V92.73h.85V96a1.43,1.43,0,0,0,.34,1.11,1.5,1.5,0,0,0,1,.3,1.65,1.65,0,0,0,.58-.1,1.39,1.39,0,0,0,.52-.31,1.59,1.59,0,0,0,.36-.56,2.22,2.22,0,0,0,.13-.81V92.73h.85V98h-.74l-.06-.81a1.66,1.66,0,0,1-.74.7A2.75,2.75,0,0,1,213.82,98.14Z"/><path class="cls-4" d="M218.6,98v-5.3h.74l0,.83a1.71,1.71,0,0,1,.75-.71,2.14,2.14,0,0,1,1-.23,2.31,2.31,0,0,1,1.06.26,1.69,1.69,0,0,1,.76.78,1.61,1.61,0,0,1,.48-.58,1.93,1.93,0,0,1,.67-.34,2.29,2.29,0,0,1,.7-.12,2.33,2.33,0,0,1,1,.22,1.9,1.9,0,0,1,.76.65,2.11,2.11,0,0,1,.29,1.15V98h-.85V94.72a1.34,1.34,0,0,0-.36-1,1.29,1.29,0,0,0-.89-.31,1.52,1.52,0,0,0-1.35.79,2,2,0,0,0-.22,1V98h-.84V94.72a1.34,1.34,0,0,0-.36-1,1.31,1.31,0,0,0-.89-.31,1.6,1.6,0,0,0-.72.18,1.56,1.56,0,0,0-.61.59,2.05,2.05,0,0,0-.24,1.06V98Z"/><path class="cls-4" d="M231.07,98.14a2.72,2.72,0,0,1-1.34-.33,2.32,2.32,0,0,1-.91-1,3.48,3.48,0,0,1,0-3,2.36,2.36,0,0,1,.9-1,2.54,2.54,0,0,1,1.3-.33,2.42,2.42,0,0,1,1.27.32,2.1,2.1,0,0,1,.8.87,2.7,2.7,0,0,1,.27,1.22c0,.12,0,.23,0,.33a1,1,0,0,1,0,.26H229v-.75H233l-.43.09a1.59,1.59,0,0,0-.42-1.18,1.49,1.49,0,0,0-1.1-.41,1.68,1.68,0,0,0-.89.23,1.54,1.54,0,0,0-.59.69,2.59,2.59,0,0,0-.2,1.09,2.54,2.54,0,0,0,.21,1.08,1.54,1.54,0,0,0,.6.7,2.05,2.05,0,0,0,1.87,0,1.7,1.7,0,0,0,.59-.6l.67.39a2.23,2.23,0,0,1-.52.62A2,2,0,0,1,232,98,2.77,2.77,0,0,1,231.07,98.14Zm.17-8.06h.93l-1,1.77h-.69Z"/><path class="cls-4" d="M235.13,98v-5.3h.69l.12.87a1.55,1.55,0,0,1,.65-.73,2.15,2.15,0,0,1,1-.25l.3,0a.77.77,0,0,1,.28.08l-.15.77-.25-.06-.4,0a1.28,1.28,0,0,0-.66.19,1.56,1.56,0,0,0-.56.58,2,2,0,0,0-.22,1V98Z"/><path class="cls-4" d="M240,91.71a.65.65,0,0,1-.46-.17.61.61,0,0,1-.17-.46.6.6,0,0,1,.17-.46.62.62,0,0,1,.46-.18.62.62,0,0,1,.64.64.62.62,0,0,1-.18.46A.64.64,0,0,1,240,91.71Zm.43,1V98h-.85v-5.3Z"/><path class="cls-4" d="M246.42,100.26V96.58l.15.1a1.55,1.55,0,0,1-.35.79,1.92,1.92,0,0,1-.69.5,2.33,2.33,0,0,1-2.07-.16,2.31,2.31,0,0,1-.88-1,3.11,3.11,0,0,1-.33-1.48,2.88,2.88,0,0,1,.35-1.49,2.38,2.38,0,0,1,.92-.94,2.41,2.41,0,0,1,1.23-.33,2.09,2.09,0,0,1,.83.17,1.88,1.88,0,0,1,.65.46,1.52,1.52,0,0,1,.35.72h-.13l.08-1.24h.74v7.53Zm-1.67-2.87a1.58,1.58,0,0,0,.87-.24,1.69,1.69,0,0,0,.59-.72,2.54,2.54,0,0,0,.21-1.08,2.67,2.67,0,0,0-.2-1.08,1.53,1.53,0,0,0-.58-.67,1.57,1.57,0,0,0-.87-.23,1.49,1.49,0,0,0-1.23.55,2.23,2.23,0,0,0-.44,1.46,2.27,2.27,0,0,0,.43,1.46A1.46,1.46,0,0,0,244.75,97.39Z"/><path class="cls-4" d="M251.32,98.14a2.57,2.57,0,0,1-1-.19,1.68,1.68,0,0,1-.73-.62,2,2,0,0,1-.28-1.12V92.73h.85V96a1.39,1.39,0,0,0,.35,1.11,1.45,1.45,0,0,0,1,.3,1.65,1.65,0,0,0,.58-.1,1.31,1.31,0,0,0,.52-.31,1.59,1.59,0,0,0,.36-.56,2.22,2.22,0,0,0,.13-.81V92.73H254V98h-.74l0-.81a1.74,1.74,0,0,1-.75.7A2.75,2.75,0,0,1,251.32,98.14Z"/><path class="cls-4" d="M258.32,98.14a2.66,2.66,0,0,1-1.34-.33,2.28,2.28,0,0,1-.92-1,3.48,3.48,0,0,1,0-3,2.36,2.36,0,0,1,.9-1,2.56,2.56,0,0,1,1.3-.33,2.42,2.42,0,0,1,1.27.32,2,2,0,0,1,.8.87,2.71,2.71,0,0,1,.28,1.22c0,.12,0,.23,0,.33a1.59,1.59,0,0,1,0,.26h-4.28v-.75h3.91l-.43.09a1.59,1.59,0,0,0-.42-1.18,1.49,1.49,0,0,0-1.1-.41,1.71,1.71,0,0,0-.89.23,1.61,1.61,0,0,0-.59.69,2.75,2.75,0,0,0-.2,1.09,2.54,2.54,0,0,0,.21,1.08,1.54,1.54,0,0,0,.6.7,2.05,2.05,0,0,0,1.87,0,1.7,1.7,0,0,0,.59-.6l.67.39a2.38,2.38,0,0,1-.51.62,2.14,2.14,0,0,1-.74.41A2.71,2.71,0,0,1,258.32,98.14Z"/><path class="cls-4" d="M264.28,98.14a3.09,3.09,0,0,1-1.42-.33,2.28,2.28,0,0,1-1-.94l.72-.51a1.78,1.78,0,0,0,.68.76,2.07,2.07,0,0,0,1.09.27,1.59,1.59,0,0,0,.88-.21.68.68,0,0,0,.32-.57.65.65,0,0,0-.15-.41.94.94,0,0,0-.54-.27l-1.28-.26a2.06,2.06,0,0,1-1.1-.53,1.32,1.32,0,0,1-.34-.93,1.4,1.4,0,0,1,.25-.79,1.8,1.8,0,0,1,.71-.58,2.61,2.61,0,0,1,1.09-.22,2.68,2.68,0,0,1,1.32.31,2,2,0,0,1,.81.87l-.71.47a1.33,1.33,0,0,0-.58-.69,1.8,1.8,0,0,0-.84-.21,1.78,1.78,0,0,0-.65.1,1,1,0,0,0-.42.29.73.73,0,0,0-.14.42.64.64,0,0,0,.16.43,1,1,0,0,0,.59.28l1.33.28a1.84,1.84,0,0,1,1,.49,1.23,1.23,0,0,1,.29.82,1.47,1.47,0,0,1-.26.88,1.7,1.7,0,0,1-.74.57A2.75,2.75,0,0,1,264.28,98.14Z"/></g></g></svg>